<svg width="75" height="52" viewBox="0 0 75 52" fill="none" xmlns="http://www.w3.org/2000/svg">
<path d="M30.4616 36.9231L49.6246 25.8462L30.4616 14.7692V36.9231ZM73.1446 8.01231C73.6246 9.74769 73.9569 12.0738 74.1785 15.0277C74.4369 17.9815 74.5477 20.5292 74.5477 22.7446L74.7692 25.8462C74.7692 33.9323 74.1785 39.8769 73.1446 43.68C72.2216 47.0031 70.08 49.1446 66.7569 50.0677C65.0216 50.5477 61.8462 50.88 56.9723 51.1015C52.1723 51.36 47.7785 51.4708 43.7169 51.4708L37.8462 51.6923C22.3754 51.6923 12.7385 51.1015 8.9354 50.0677C5.61233 49.1446 3.47079 47.0031 2.54771 43.68C2.06771 41.9446 1.7354 39.6185 1.51387 36.6646C1.2554 33.7108 1.14463 31.1631 1.14463 28.9477L0.923096 25.8462C0.923096 17.76 1.51387 11.8154 2.54771 8.01231C3.47079 4.68923 5.61233 2.54769 8.9354 1.62462C10.6708 1.14462 13.8462 0.812307 18.72 0.590769C23.52 0.332307 27.9139 0.221538 31.9754 0.221538L37.8462 0C53.3169 0 62.9539 0.590769 66.7569 1.62462C70.08 2.54769 72.2216 4.68923 73.1446 8.01231Z" fill="white"/>
</svg>
