<svg width="31" height="29" viewBox="0 0 31 29" fill="none" xmlns="http://www.w3.org/2000/svg">
<path d="M24.4737 22.8947C25.3391 22.8947 26.1691 23.2164 26.7811 23.7888C27.393 24.3613 27.7368 25.1378 27.7368 25.9474C27.7368 26.757 27.393 27.5334 26.7811 28.1059C26.1691 28.6784 25.3391 29 24.4737 29C23.6082 29 22.7782 28.6784 22.1663 28.1059C21.5543 27.5334 21.2105 26.757 21.2105 25.9474C21.2105 25.1378 21.5543 24.3613 22.1663 23.7888C22.7782 23.2164 23.6082 22.8947 24.4737 22.8947ZM24.4737 24.4211C24.041 24.4211 23.626 24.5819 23.32 24.8681C23.014 25.1543 22.8421 25.5426 22.8421 25.9474C22.8421 26.3522 23.014 26.7404 23.32 27.0266C23.626 27.3129 24.041 27.4737 24.4737 27.4737C24.9064 27.4737 25.3214 27.3129 25.6274 27.0266C25.9334 26.7404 26.1053 26.3522 26.1053 25.9474C26.1053 25.5426 25.9334 25.1543 25.6274 24.8681C25.3214 24.5819 24.9064 24.4211 24.4737 24.4211ZM9.78947 22.8947C10.6549 22.8947 11.4849 23.2164 12.0969 23.7888C12.7088 24.3613 13.0526 25.1378 13.0526 25.9474C13.0526 26.757 12.7088 27.5334 12.0969 28.1059C11.4849 28.6784 10.6549 29 9.78947 29C8.92403 29 8.09403 28.6784 7.48207 28.1059C6.87011 27.5334 6.52632 26.757 6.52632 25.9474C6.52632 25.1378 6.87011 24.3613 7.48207 23.7888C8.09403 23.2164 8.92403 22.8947 9.78947 22.8947ZM9.78947 24.4211C9.35675 24.4211 8.94175 24.5819 8.63577 24.8681C8.32979 25.1543 8.15789 25.5426 8.15789 25.9474C8.15789 26.3522 8.32979 26.7404 8.63577 27.0266C8.94175 27.3129 9.35675 27.4737 9.78947 27.4737C10.2222 27.4737 10.6372 27.3129 10.9432 27.0266C11.2492 26.7404 11.4211 26.3522 11.4211 25.9474C11.4211 25.5426 11.2492 25.1543 10.9432 24.8681C10.6372 24.5819 10.2222 24.4211 9.78947 24.4211ZM27.7368 4.57895H5.33526L9.49579 13.7368H22.8421C23.3805 13.7368 23.8537 13.4926 24.1474 13.1263L29.0421 7.02105C29.2542 6.76158 29.3684 6.44105 29.3684 6.10526C29.3684 5.70046 29.1965 5.31223 28.8905 5.026C28.5846 4.73976 28.1696 4.57895 27.7368 4.57895ZM22.8421 15.2632H9.57737L8.32105 17.6442L8.15789 18.3158C8.15789 18.7206 8.32979 19.1088 8.63577 19.3951C8.94175 19.6813 9.35675 19.8421 9.78947 19.8421H27.7368V21.3684H9.78947C8.92403 21.3684 8.09403 21.0468 7.48207 20.4743C6.87011 19.9018 6.52632 19.1254 6.52632 18.3158C6.52583 17.7979 6.6662 17.2884 6.93421 16.8353L8.10895 14.5916L2.18632 1.52632H0V0H3.26316L4.65 3.05263H27.7368C28.6023 3.05263 29.4323 3.37425 30.0442 3.94673C30.6562 4.51921 31 5.29565 31 6.10526C31 6.86842 30.7226 7.50947 30.2658 8.02842L25.5179 13.9658C24.9305 14.7442 23.9516 15.2632 22.8421 15.2632Z" fill="white"/>
</svg>
