<svg width="30" height="30" viewBox="0 0 30 30" fill="none" xmlns="http://www.w3.org/2000/svg">
<path d="M11.4169 0C14.4448 0 17.3487 1.20214 19.4898 3.34196C21.6309 5.48179 22.8337 8.38401 22.8337 11.4102C22.8337 14.2539 21.7974 16.852 20.0761 18.8356L30 28.7537L28.7529 30L18.829 20.0819C16.7657 21.8517 14.1358 22.8233 11.4169 22.8204C8.38892 22.8204 5.485 21.6182 3.34392 19.4784C1.20284 17.3386 0 14.4363 0 11.4102C0 8.38401 1.20284 5.48179 3.34392 3.34196C5.485 1.20214 8.38892 0 11.4169 0ZM11.4169 1.75541C8.85476 1.75541 6.39759 2.77261 4.58591 4.58323C2.77423 6.39385 1.75644 8.84958 1.75644 11.4102C1.75644 13.9708 2.77423 16.4265 4.58591 18.2371C6.39759 20.0478 8.85476 21.0649 11.4169 21.0649C12.6855 21.0649 13.9417 20.8152 15.1137 20.33C16.2858 19.8448 17.3508 19.1337 18.2478 18.2371C19.1449 17.3406 19.8564 16.2763 20.3419 15.1049C20.8274 13.9335 21.0773 12.6781 21.0773 11.4102C21.0773 10.1423 20.8274 8.88683 20.3419 7.71546C19.8564 6.54409 19.1449 5.47976 18.2478 4.58323C17.3508 3.6867 16.2858 2.97554 15.1137 2.49034C13.9417 2.00514 12.6855 1.75541 11.4169 1.75541Z" fill="white"/>
</svg>
