<svg width="90" height="90" viewBox="0 0 90 90" fill="none" xmlns="http://www.w3.org/2000/svg">
<path d="M59.5383 11.8467C64.4346 11.8467 69.1304 13.7917 72.5926 17.2539C76.0548 20.7161 77.9999 25.4119 77.9999 30.3082V59.8467C77.9999 64.743 76.0548 69.4387 72.5926 72.901C69.1304 76.3632 64.4346 78.3082 59.5383 78.3082H29.9999C25.1036 78.3082 20.4078 76.3632 16.9456 72.901C13.4834 69.4387 11.5383 64.743 11.5383 59.8467V30.3082C11.5383 25.4119 13.4834 20.7161 16.9456 17.2539C20.4078 13.7917 25.1036 11.8467 29.9999 11.8467H59.5383ZM44.7691 30.3082C40.8521 30.3082 37.0954 31.8643 34.3257 34.634C31.5559 37.4038 29.9999 41.1604 29.9999 45.0774C29.9999 48.9945 31.5559 52.7511 34.3257 55.5209C37.0954 58.2906 40.8521 59.8467 44.7691 59.8467C48.6861 59.8467 52.4428 58.2906 55.2125 55.5209C57.9823 52.7511 59.5383 48.9945 59.5383 45.0774C59.5383 41.1604 57.9823 37.4038 55.2125 34.634C52.4428 31.8643 48.6861 30.3082 44.7691 30.3082ZM44.7691 37.6928C46.7276 37.6928 48.6059 38.4709 49.9908 39.8557C51.3757 41.2406 52.1537 43.1189 52.1537 45.0774C52.1537 47.036 51.3757 48.9143 49.9908 50.2992C48.6059 51.684 46.7276 52.4621 44.7691 52.4621C42.8106 52.4621 40.9323 51.684 39.5474 50.2992C38.1625 48.9143 37.3845 47.036 37.3845 45.0774C37.3845 43.1189 38.1625 41.2406 39.5474 39.8557C40.9323 38.4709 42.8106 37.6928 44.7691 37.6928ZM61.3845 24.7698C60.4052 24.7698 59.4661 25.1588 58.7736 25.8512C58.0812 26.5437 57.6922 27.4828 57.6922 28.4621C57.6922 29.4413 58.0812 30.3805 58.7736 31.0729C59.4661 31.7654 60.4052 32.1544 61.3845 32.1544C62.3637 32.1544 63.3029 31.7654 63.9953 31.0729C64.6878 30.3805 65.0768 29.4413 65.0768 28.4621C65.0768 27.4828 64.6878 26.5437 63.9953 25.8512C63.3029 25.1588 62.3637 24.7698 61.3845 24.7698Z" fill="white"/>
</svg>
