<svg width="75" height="75" viewBox="0 0 75 75" fill="none" xmlns="http://www.w3.org/2000/svg">
<rect x="0.375" y="0.375" width="74.25" height="74.25" stroke="white" stroke-width="0.75"/>
<rect x="5.375" y="5.375" width="64.25" height="64.25" stroke="white" stroke-width="0.75"/>
<path d="M12.8833 26.4199L14.3921 26.3906C16.3013 26.3906 17.7441 26.8545 18.7207 27.7822C19.6973 28.71 20.1855 29.8794 20.1855 31.2905C20.1855 32.2915 19.9512 33.1631 19.4824 33.9053C19.0137 34.6426 18.4277 35.1992 17.7246 35.5752C17.0215 35.9512 16.084 36.1392 14.9121 36.1392C14.6484 36.1392 14.314 36.1245 13.9087 36.0952C13.186 36.0366 12.7808 36.0073 12.6929 36.0073C11.0913 36.0073 10.1489 36.0244 9.86572 36.0586C9.70459 36.0586 9.62402 36.0171 9.62402 35.9341C9.62402 35.8755 9.65332 35.8364 9.71191 35.8169C9.77051 35.7974 9.95117 35.7681 10.2539 35.729C10.6445 35.6753 10.918 35.519 11.0742 35.2603C11.2354 35.0015 11.3354 34.1958 11.3745 32.8433L11.4917 28.9688C11.4917 28.5195 11.46 28.0874 11.3965 27.6724C11.3379 27.2524 11.2427 26.9839 11.1108 26.8667C10.9839 26.7446 10.7788 26.6616 10.4956 26.6177C10.2905 26.5884 10.188 26.5322 10.188 26.4492C10.188 26.3467 10.2393 26.2954 10.3418 26.2954C10.4395 26.2954 10.7373 26.3174 11.2354 26.3613C11.7383 26.4004 12.2876 26.4199 12.8833 26.4199ZM12.627 33.4951C12.627 34.1396 12.6685 34.6011 12.7515 34.8794C12.8394 35.1528 13.0225 35.3799 13.3008 35.5605C13.584 35.7363 14.0356 35.8242 14.6558 35.8242C15.5444 35.8242 16.2646 35.6143 16.8164 35.1943C17.3682 34.7744 17.7979 34.2153 18.1055 33.5171C18.418 32.8188 18.5742 32.0767 18.5742 31.2905C18.5742 30.1284 18.2202 29.0762 17.5122 28.1338C16.8042 27.1914 15.7031 26.7202 14.209 26.7202C13.5449 26.7202 13.1567 26.7422 13.0444 26.7861C12.937 26.8301 12.8833 26.9595 12.8833 27.1743C12.8833 27.3647 12.8662 27.7041 12.832 28.1924C12.7832 28.9053 12.7515 29.4619 12.7368 29.8623L12.6709 31.8765C12.6416 32.8188 12.627 33.3584 12.627 33.4951ZM22.5732 32.5796C22.5537 32.8286 22.5439 33.0264 22.5439 33.1729C22.5439 33.8662 22.7466 34.4521 23.1519 34.9307C23.562 35.4092 24.0674 35.6484 24.668 35.6484C25.2539 35.6484 25.7983 35.4141 26.3013 34.9453C26.4478 34.8135 26.5405 34.7476 26.5796 34.7476C26.6577 34.7476 26.6992 34.811 26.7041 34.938C26.5186 35.2798 26.2012 35.5679 25.752 35.8022C25.3027 36.0366 24.8022 36.1538 24.2505 36.1538C23.4399 36.1538 22.7539 35.8633 22.1924 35.2822C21.6309 34.6963 21.3501 33.9565 21.3501 33.063C21.3501 32.106 21.6577 31.3076 22.2729 30.668C22.8931 30.0283 23.5547 29.7085 24.2578 29.7085C24.917 29.7085 25.5127 29.96 26.0449 30.4629C26.5771 30.9609 26.8433 31.5469 26.8433 32.2207C26.8433 32.3232 26.8262 32.3989 26.792 32.4478C26.7627 32.4966 26.5771 32.521 26.2354 32.521L22.5732 32.5796ZM22.5732 32.1987C23.208 32.228 23.8232 32.2427 24.4189 32.2427L24.8071 32.2207C25.1001 32.2109 25.3247 32.1548 25.481 32.0522C25.6372 31.9448 25.7153 31.7593 25.7153 31.4956C25.7153 31.0854 25.5737 30.729 25.2905 30.4263C25.0122 30.1187 24.6826 29.9648 24.3018 29.9648C23.9502 29.9648 23.5986 30.1406 23.2471 30.4922C22.9004 30.8389 22.6758 31.4077 22.5732 32.1987ZM32.4683 34.0591C32.4683 34.6255 32.2583 35.1138 31.8384 35.5239C31.4185 35.9292 30.9204 36.1318 30.3442 36.1318C30.0024 36.1318 29.5947 36.022 29.1211 35.8022C28.8623 35.6851 28.7085 35.6265 28.6597 35.6265C28.5767 35.6265 28.5034 35.6777 28.4399 35.7803C28.3618 35.917 28.2886 35.9854 28.2202 35.9854C28.1616 35.9854 28.125 35.917 28.1104 35.7803C28.0957 35.6387 28.0859 35.3213 28.0811 34.8281C28.0762 34.4033 28.0688 34.1299 28.0591 34.0078C28.0591 33.8271 28.1055 33.7368 28.1982 33.7368C28.252 33.7368 28.2935 33.7832 28.3228 33.876C28.5132 34.4326 28.7793 34.9062 29.1211 35.2969C29.4678 35.6826 29.873 35.8755 30.3369 35.8755C30.6641 35.8755 30.9546 35.7754 31.2085 35.5752C31.4624 35.3701 31.5894 35.0942 31.5894 34.7476C31.5894 34.2104 31.123 33.7344 30.1904 33.3193C29.5508 33.0312 29.1235 32.8213 28.9087 32.6895C28.6938 32.5576 28.5254 32.3794 28.4033 32.1548C28.2812 31.9302 28.2202 31.686 28.2202 31.4224C28.2202 30.9194 28.4106 30.4995 28.7915 30.1626C29.1724 29.8208 29.6338 29.6499 30.1758 29.6499C30.5762 29.6499 31.0156 29.7744 31.4941 30.0234C31.5723 30.0625 31.6406 30.082 31.6992 30.082C31.748 30.082 31.8018 30.043 31.8604 29.9648C31.9189 29.8916 31.9653 29.855 31.9995 29.855C32.0435 29.855 32.0776 29.8745 32.1021 29.9136C32.1265 29.9478 32.1533 30.1626 32.1826 30.5581C32.2119 30.9487 32.2266 31.271 32.2266 31.5249C32.2266 31.6812 32.1851 31.7593 32.1021 31.7593C32.0288 31.7593 31.9702 31.6885 31.9263 31.5469C31.8872 31.415 31.77 31.1636 31.5747 30.7925C31.3794 30.4214 31.1646 30.1846 30.9302 30.082C30.7007 29.9795 30.4736 29.9282 30.249 29.9282C29.8975 29.9282 29.6094 30.0137 29.3848 30.1846C29.1602 30.3555 29.0479 30.5776 29.0479 30.8511C29.0479 31.022 29.0942 31.1758 29.187 31.3125C29.2798 31.4492 29.3652 31.5518 29.4434 31.6201C29.5264 31.6885 29.9927 31.9131 30.8423 32.2939C31.3696 32.5332 31.7163 32.7188 31.8823 32.8506C32.0483 32.9775 32.1875 33.1509 32.2998 33.3706C32.4121 33.5903 32.4683 33.8198 32.4683 34.0591ZM34.9512 26.127C35.1367 26.127 35.3027 26.1953 35.4492 26.332C35.5957 26.4688 35.6689 26.6177 35.6689 26.7788C35.6689 26.9692 35.6079 27.1328 35.4858 27.2695C35.3687 27.4062 35.2051 27.4746 34.9951 27.4746C34.8096 27.4746 34.6436 27.416 34.4971 27.2988C34.3506 27.1768 34.2773 27.0132 34.2773 26.8081C34.2773 26.6079 34.3384 26.4443 34.4604 26.3174C34.5874 26.1904 34.751 26.127 34.9512 26.127ZM35.7642 29.7085L35.7568 31.3564L35.7715 32.8945V34.0518L35.7642 34.9307C35.7642 35.2822 35.8203 35.5068 35.9326 35.6045C36.0498 35.6973 36.2231 35.7485 36.4526 35.7583C36.7212 35.7729 36.8555 35.8291 36.8555 35.9268C36.8555 36.0049 36.8042 36.0439 36.7017 36.0439C36.6626 36.0439 36.6187 36.0415 36.5698 36.0366C36.1157 35.978 35.6934 35.9487 35.3027 35.9487C34.6777 35.9487 34.2456 35.9683 34.0063 36.0073C33.9575 36.0171 33.9087 36.022 33.8599 36.022C33.7427 36.022 33.6841 35.978 33.6841 35.8901C33.6841 35.8022 33.8208 35.7412 34.0942 35.707C34.3677 35.6729 34.541 35.6143 34.6143 35.5312C34.6924 35.4434 34.7314 35.1992 34.7314 34.7988L34.7754 31.7666C34.7754 30.9561 34.7144 30.4775 34.5923 30.3311C34.4702 30.1797 34.2334 30.0991 33.8818 30.0894C33.7646 30.0894 33.7061 30.0503 33.7061 29.9722C33.7061 29.9282 33.7256 29.894 33.7646 29.8696C33.8037 29.8452 34.0942 29.8135 34.6362 29.7744C35.1782 29.7354 35.5542 29.7134 35.7642 29.7085ZM42.9346 30.7485C43.1543 31.1001 43.2642 31.4858 43.2642 31.9058C43.2642 32.5356 43.0566 33.0728 42.6416 33.5171C42.2217 33.9614 41.6211 34.2129 40.8398 34.2715C40.3369 34.3105 39.9927 34.3545 39.8071 34.4033C39.6265 34.4473 39.4604 34.54 39.3091 34.6816C39.1577 34.8184 39.082 34.9551 39.082 35.0918C39.082 35.2969 39.1992 35.4482 39.4336 35.5459C39.6631 35.6436 40.1489 35.7046 40.8911 35.729C41.98 35.7681 42.7075 35.8169 43.0737 35.8755C43.4399 35.9292 43.7524 36.0977 44.0112 36.3809C44.2749 36.6689 44.4067 37.0376 44.4067 37.4868C44.4067 38.229 44.0796 38.832 43.4253 39.2959C42.771 39.7598 41.8042 39.9917 40.5249 39.9917C39.5776 39.9917 38.8647 39.8696 38.3862 39.6255C37.9126 39.3813 37.6758 39.0176 37.6758 38.5342C37.6758 37.7725 38.3984 37.1523 39.8438 36.6738C39.2334 36.5762 38.8037 36.4419 38.5547 36.271C38.3057 36.105 38.1812 35.8706 38.1812 35.5679C38.1812 35.2554 38.3105 34.9819 38.5693 34.7476C38.833 34.5083 39.2261 34.3081 39.7485 34.147C39.2798 34.0103 38.9014 33.771 38.6133 33.4292C38.3301 33.0825 38.1885 32.6772 38.1885 32.2134C38.1885 31.5444 38.4424 30.9609 38.9502 30.4629C39.458 29.96 40.1025 29.7085 40.8838 29.7085C41.6455 29.7085 42.2656 29.9697 42.7441 30.4922C43.2471 29.9209 43.7183 29.6353 44.1577 29.6353C44.4653 29.6353 44.7021 29.7231 44.8682 29.8989C45.0391 30.0747 45.1245 30.2676 45.1245 30.4775C45.1245 30.6094 45.0757 30.7192 44.978 30.8071C44.8804 30.895 44.7632 30.939 44.6265 30.939C44.3774 30.939 44.1797 30.7925 44.0332 30.4995C43.9453 30.3237 43.8403 30.2358 43.7183 30.2358C43.5181 30.2358 43.2568 30.4067 42.9346 30.7485ZM39.353 31.979C39.353 32.7017 39.5093 33.2168 39.8218 33.5244C40.1392 33.8271 40.4736 33.9785 40.8252 33.9785C41.1523 33.9785 41.4453 33.8223 41.7041 33.5098C41.9678 33.1973 42.0996 32.7188 42.0996 32.0742C42.0996 31.4102 41.9702 30.8975 41.7114 30.5361C41.4526 30.1699 41.1353 29.9868 40.7593 29.9868C40.3442 29.9868 40.0049 30.1626 39.7412 30.5142C39.4824 30.8657 39.353 31.354 39.353 31.979ZM41.3013 36.6958C40.7935 36.6958 40.3223 36.7788 39.8877 36.9448C39.4531 37.1108 39.1309 37.3086 38.9209 37.5381C38.7158 37.7725 38.6133 38.0508 38.6133 38.373C38.6133 38.8027 38.8208 39.1299 39.2358 39.3545C39.6509 39.584 40.1709 39.6987 40.7959 39.6987C41.7432 39.6987 42.4463 39.5059 42.9053 39.1201C43.3643 38.7393 43.5938 38.3218 43.5938 37.8677C43.5938 37.4771 43.4033 37.1841 43.0225 36.9888C42.6416 36.7935 42.0679 36.6958 41.3013 36.6958ZM47.5781 29.7305C47.6953 30.0186 47.7661 30.5044 47.7905 31.188C48.0933 30.7095 48.4277 30.3506 48.7939 30.1113C49.165 29.8721 49.5679 29.7524 50.0024 29.7524C50.3345 29.7524 50.6543 29.8159 50.9619 29.9429C51.2744 30.0649 51.5137 30.2798 51.6797 30.5874C51.8506 30.8901 51.936 31.4077 51.936 32.1401L51.8921 34.6084C51.8921 35.0625 51.9287 35.3481 52.002 35.4653C52.0801 35.5776 52.2437 35.668 52.4927 35.7363C52.6636 35.7852 52.749 35.8389 52.749 35.8975C52.749 35.9707 52.7075 36.0073 52.6245 36.0073C52.5903 36.0073 52.5562 36.0049 52.522 36C52.2974 35.9512 51.9653 35.9268 51.5259 35.9268C51.1304 35.9268 50.7056 35.9438 50.2515 35.978C50.0708 35.978 49.9805 35.9365 49.9805 35.8535C49.9805 35.7949 50.0293 35.7559 50.127 35.7363C50.3955 35.6777 50.5713 35.6167 50.6543 35.5532C50.7373 35.4897 50.7959 35.4067 50.8301 35.3042C50.8643 35.1968 50.8911 34.8428 50.9106 34.2422C50.9351 33.6416 50.9473 33.1533 50.9473 32.7773C50.9473 31.7471 50.8179 31.061 50.5591 30.7192C50.3003 30.3774 49.978 30.2065 49.5923 30.2065C49.021 30.2065 48.5449 30.5166 48.1641 31.1367C47.7881 31.752 47.6001 32.7798 47.6001 34.2202C47.6001 34.8745 47.6416 35.292 47.7246 35.4727C47.8125 35.6484 48.0273 35.7559 48.3691 35.7949C48.4766 35.8047 48.5303 35.8511 48.5303 35.9341C48.5303 36.0024 48.4766 36.0366 48.3691 36.0366L47.9883 36.0073C47.8516 35.9976 47.3999 35.9927 46.6333 35.9927L46.0474 36.0073C45.8325 36.0073 45.7251 35.9683 45.7251 35.8901C45.7251 35.8071 45.8423 35.7437 46.0767 35.6997C46.3013 35.6558 46.4526 35.5801 46.5308 35.4727C46.6089 35.3604 46.6602 34.9941 46.6846 34.374C46.7139 33.7539 46.7285 32.98 46.7285 32.0522C46.7285 31.188 46.6699 30.6509 46.5527 30.4409C46.4355 30.231 46.272 30.1016 46.062 30.0527C45.8716 30.0088 45.7764 29.9478 45.7764 29.8696C45.7764 29.7866 45.8496 29.7451 45.9961 29.7451L46.5894 29.7524C46.6528 29.7524 46.9824 29.7451 47.5781 29.7305ZM54.9463 32.5796C54.9268 32.8286 54.917 33.0264 54.917 33.1729C54.917 33.8662 55.1196 34.4521 55.5249 34.9307C55.9351 35.4092 56.4404 35.6484 57.041 35.6484C57.627 35.6484 58.1714 35.4141 58.6743 34.9453C58.8208 34.8135 58.9136 34.7476 58.9526 34.7476C59.0308 34.7476 59.0723 34.811 59.0771 34.938C58.8916 35.2798 58.5742 35.5679 58.125 35.8022C57.6758 36.0366 57.1753 36.1538 56.6235 36.1538C55.813 36.1538 55.127 35.8633 54.5654 35.2822C54.0039 34.6963 53.7231 33.9565 53.7231 33.063C53.7231 32.106 54.0308 31.3076 54.646 30.668C55.2661 30.0283 55.9277 29.7085 56.6309 29.7085C57.29 29.7085 57.8857 29.96 58.418 30.4629C58.9502 30.9609 59.2163 31.5469 59.2163 32.2207C59.2163 32.3232 59.1992 32.3989 59.165 32.4478C59.1357 32.4966 58.9502 32.521 58.6084 32.521L54.9463 32.5796ZM54.9463 32.1987C55.5811 32.228 56.1963 32.2427 56.792 32.2427L57.1802 32.2207C57.4731 32.2109 57.6978 32.1548 57.854 32.0522C58.0103 31.9448 58.0884 31.7593 58.0884 31.4956C58.0884 31.0854 57.9468 30.729 57.6636 30.4263C57.3853 30.1187 57.0557 29.9648 56.6748 29.9648C56.3232 29.9648 55.9717 30.1406 55.6201 30.4922C55.2734 30.8389 55.0488 31.4077 54.9463 32.1987ZM62.1899 31.3711C62.4976 30.8242 62.8247 30.4141 63.1714 30.1406C63.5229 29.8672 63.8916 29.7305 64.2773 29.7305C64.5459 29.7305 64.7778 29.8281 64.9731 30.0234C65.1685 30.2139 65.2661 30.4312 65.2661 30.6753C65.2661 31.1392 65.0684 31.3711 64.6729 31.3711C64.4873 31.3711 64.3311 31.2417 64.2041 30.9829C64.0479 30.6558 63.8403 30.4922 63.5815 30.4922C63.3374 30.4922 63.0859 30.6289 62.8271 30.9023C62.5684 31.1758 62.395 31.4761 62.3071 31.8032C62.2192 32.1255 62.1753 32.8042 62.1753 33.8394C62.1753 34.7866 62.2144 35.3311 62.2925 35.4727C62.3706 35.6094 62.5708 35.6973 62.8931 35.7363C62.981 35.7461 63.0249 35.7803 63.0249 35.8389C63.0249 35.9414 62.9102 35.9927 62.6807 35.9927H60.3442C60.1782 35.9927 60.0952 35.9512 60.0952 35.8682C60.0952 35.79 60.2051 35.7461 60.4248 35.7363C60.7324 35.7168 60.9229 35.6216 60.9961 35.4507C61.0693 35.2798 61.106 34.6499 61.106 33.561C61.106 31.9644 61.0718 31.0049 61.0034 30.6826C60.9399 30.3604 60.6958 30.1895 60.271 30.1699C60.0952 30.1602 60.0073 30.1138 60.0073 30.0308C60.0073 29.9868 60.0244 29.9551 60.0586 29.9355C60.0977 29.9111 60.3223 29.8867 60.7324 29.8623L62.0801 29.7891C62.1143 30.0527 62.1509 30.5801 62.1899 31.3711ZM27.4146 53.0366C27.1753 53.0464 27.0386 53.0513 27.0044 53.0513C26.8237 53.0513 26.4966 53.0415 26.0229 53.022C25.5493 53.0073 24.5654 53 23.0713 53H21.2109C21.1426 53 20.8936 53.0098 20.4639 53.0293C20.0342 53.0537 19.7729 53.0659 19.6802 53.0659C19.3091 53.0659 19.1235 53.0171 19.1235 52.9194C19.1235 52.8413 19.1968 52.7998 19.3433 52.7949C19.8169 52.7656 20.1465 52.6655 20.332 52.4946C20.5176 52.3188 20.6445 52.0698 20.7129 51.7476C20.7812 51.4204 20.8154 50.5415 20.8154 49.1108L20.8228 46.4888C20.8228 45.6392 20.7837 45.0459 20.7056 44.709C20.6323 44.3721 20.4761 44.1157 20.2368 43.9399C20.0024 43.7593 19.7363 43.6567 19.4385 43.6323C19.2822 43.6177 19.2041 43.5664 19.2041 43.4785C19.2041 43.3906 19.2749 43.3467 19.4165 43.3467C19.4507 43.3467 19.5142 43.3491 19.6069 43.354C20.3833 43.3979 21.2915 43.4199 22.3315 43.4199L23.6206 43.3979C23.7524 43.3979 23.8184 43.4468 23.8184 43.5444C23.8184 43.6323 23.7476 43.6763 23.606 43.6763C23.2593 43.6763 22.9688 43.7446 22.7344 43.8813C22.5049 44.0181 22.3511 44.1768 22.2729 44.3574C22.1997 44.5332 22.1631 44.8799 22.1631 45.3975L22.1045 48.8618L22.1191 50.7954C22.1191 51.396 22.1436 51.7866 22.1924 51.9673C22.2461 52.1479 22.3535 52.3115 22.5146 52.458C22.6758 52.5996 22.9688 52.6704 23.3936 52.6704C23.4277 52.6704 23.8647 52.6558 24.7046 52.6265C25.3735 52.5337 25.9741 52.2065 26.5063 51.645C27.0386 51.0835 27.3926 50.5806 27.5684 50.1362C27.6221 50.0093 27.688 49.9458 27.7661 49.9458C27.8491 49.9458 27.8906 50.0044 27.8906 50.1216C27.8906 50.2583 27.8198 50.749 27.6782 51.5938C27.5366 52.4336 27.4487 52.9146 27.4146 53.0366ZM28.5425 49.9385C28.5425 49.0791 28.8525 48.3223 29.4727 47.668C30.0928 47.0137 30.8545 46.6865 31.7578 46.6865C32.6074 46.6865 33.3374 46.9795 33.9478 47.5654C34.563 48.1514 34.8706 48.8838 34.8706 49.7627C34.8706 50.6514 34.5483 51.4326 33.9038 52.1064C33.2593 52.7754 32.5073 53.1099 31.6479 53.1099C30.7983 53.1099 30.0684 52.8022 29.458 52.187C28.8477 51.5669 28.5425 50.8174 28.5425 49.9385ZM29.729 49.8945C29.729 50.7344 29.9219 51.4326 30.3076 51.9893C30.6982 52.5459 31.1792 52.8242 31.7505 52.8242C32.2729 52.8242 32.7319 52.563 33.1274 52.0405C33.5278 51.5181 33.728 50.8247 33.728 49.9604C33.728 49.189 33.5352 48.5029 33.1494 47.9023C32.7686 47.2969 32.2729 46.9941 31.6626 46.9941C31.0962 46.9941 30.6323 47.27 30.271 47.8218C29.9097 48.3687 29.729 49.0596 29.729 49.8945ZM35.896 49.9385C35.896 49.0791 36.2061 48.3223 36.8262 47.668C37.4463 47.0137 38.208 46.6865 39.1113 46.6865C39.9609 46.6865 40.6909 46.9795 41.3013 47.5654C41.9165 48.1514 42.2241 48.8838 42.2241 49.7627C42.2241 50.6514 41.9019 51.4326 41.2573 52.1064C40.6128 52.7754 39.8608 53.1099 39.0015 53.1099C38.1519 53.1099 37.4219 52.8022 36.8115 52.187C36.2012 51.5669 35.896 50.8174 35.896 49.9385ZM37.0825 49.8945C37.0825 50.7344 37.2754 51.4326 37.6611 51.9893C38.0518 52.5459 38.5327 52.8242 39.104 52.8242C39.6265 52.8242 40.0854 52.563 40.481 52.0405C40.8813 51.5181 41.0815 50.8247 41.0815 49.9604C41.0815 49.189 40.8887 48.5029 40.5029 47.9023C40.1221 47.2969 39.6265 46.9941 39.0161 46.9941C38.4497 46.9941 37.9858 47.27 37.6245 47.8218C37.2632 48.3687 37.0825 49.0596 37.0825 49.8945ZM45.1904 43.0244C45.2051 43.21 45.2124 43.3418 45.2124 43.4199L45.1904 44.2036L45.2271 47.0161L45.2344 49.9238C46.0547 49.3574 46.665 48.8569 47.0654 48.4224C47.4658 47.9829 47.666 47.6704 47.666 47.4849C47.666 47.2944 47.4854 47.1821 47.124 47.1479C46.9336 47.1284 46.8384 47.0796 46.8384 47.0015C46.8384 46.9429 46.8628 46.9062 46.9116 46.8916C46.9653 46.877 47.1826 46.8696 47.5635 46.8696L48.6841 46.877C48.9185 46.877 49.1309 46.8721 49.3213 46.8623C49.5166 46.8623 49.6143 46.9062 49.6143 46.9941C49.6143 47.0625 49.5581 47.1064 49.4458 47.126C49.104 47.1846 48.811 47.2822 48.5669 47.4189C48.3276 47.5557 48.0273 47.8169 47.666 48.2026C47.3291 48.5591 47.1118 48.7837 47.0142 48.8765C47.7173 49.2134 48.2495 50.1533 48.6108 51.6963C48.6987 52.0723 48.8257 52.3335 48.9917 52.48C49.1577 52.6265 49.4653 52.707 49.9146 52.7217C50.061 52.7314 50.1343 52.7778 50.1343 52.8608C50.1343 52.9536 50.0122 53 49.7681 53H47.9956C47.8149 52.8438 47.6953 52.6851 47.6367 52.5239C47.583 52.3628 47.5317 52.1138 47.4829 51.7769C47.312 50.605 46.8433 49.897 46.0767 49.6528C46.0522 49.6772 45.7715 49.8823 45.2344 50.2681C45.2295 50.4194 45.2271 50.5562 45.2271 50.6782C45.2271 51.606 45.2832 52.1797 45.3955 52.3994C45.5127 52.6143 45.7129 52.729 45.9961 52.7437C46.1475 52.7485 46.2231 52.7949 46.2231 52.8828C46.2231 52.9609 46.0669 53 45.7544 53H43.6304C43.3716 53 43.2422 52.9585 43.2422 52.8755C43.2422 52.7974 43.3008 52.7485 43.418 52.729C43.667 52.6899 43.8232 52.646 43.8867 52.5972C43.9551 52.5483 44.0259 52.4482 44.0991 52.2969C44.1772 52.1455 44.2163 51.8599 44.2163 51.4399L44.209 50.3047L44.1284 45.1411C44.1284 44.5601 44.0698 44.1548 43.9526 43.9253C43.8403 43.6909 43.6133 43.5469 43.2715 43.4932C43.1494 43.4736 43.0884 43.4297 43.0884 43.3613C43.0884 43.2783 43.291 43.2246 43.6963 43.2002C43.8818 43.1855 44.0796 43.1636 44.2896 43.1343C44.6948 43.0708 44.9951 43.0342 45.1904 43.0244ZM55.459 51.0591C55.459 51.6255 55.249 52.1138 54.8291 52.5239C54.4092 52.9292 53.9111 53.1318 53.335 53.1318C52.9932 53.1318 52.5854 53.022 52.1118 52.8022C51.853 52.6851 51.6992 52.6265 51.6504 52.6265C51.5674 52.6265 51.4941 52.6777 51.4307 52.7803C51.3525 52.917 51.2793 52.9854 51.2109 52.9854C51.1523 52.9854 51.1157 52.917 51.1011 52.7803C51.0864 52.6387 51.0767 52.3213 51.0718 51.8281C51.0669 51.4033 51.0596 51.1299 51.0498 51.0078C51.0498 50.8271 51.0962 50.7368 51.189 50.7368C51.2427 50.7368 51.2842 50.7832 51.3135 50.876C51.5039 51.4326 51.77 51.9062 52.1118 52.2969C52.4585 52.6826 52.8638 52.8755 53.3276 52.8755C53.6548 52.8755 53.9453 52.7754 54.1992 52.5752C54.4531 52.3701 54.5801 52.0942 54.5801 51.7476C54.5801 51.2104 54.1138 50.7344 53.1812 50.3193C52.5415 50.0312 52.1143 49.8213 51.8994 49.6895C51.6846 49.5576 51.5161 49.3794 51.394 49.1548C51.272 48.9302 51.2109 48.686 51.2109 48.4224C51.2109 47.9194 51.4014 47.4995 51.7822 47.1626C52.1631 46.8208 52.6245 46.6499 53.1665 46.6499C53.5669 46.6499 54.0063 46.7744 54.4849 47.0234C54.563 47.0625 54.6313 47.082 54.6899 47.082C54.7388 47.082 54.7925 47.043 54.8511 46.9648C54.9097 46.8916 54.9561 46.855 54.9902 46.855C55.0342 46.855 55.0684 46.8745 55.0928 46.9136C55.1172 46.9478 55.144 47.1626 55.1733 47.5581C55.2026 47.9487 55.2173 48.271 55.2173 48.5249C55.2173 48.6812 55.1758 48.7593 55.0928 48.7593C55.0195 48.7593 54.9609 48.6885 54.917 48.5469C54.8779 48.415 54.7607 48.1636 54.5654 47.7925C54.3701 47.4214 54.1553 47.1846 53.9209 47.082C53.6914 46.9795 53.4644 46.9282 53.2397 46.9282C52.8882 46.9282 52.6001 47.0137 52.3755 47.1846C52.1509 47.3555 52.0386 47.5776 52.0386 47.8511C52.0386 48.022 52.085 48.1758 52.1777 48.3125C52.2705 48.4492 52.356 48.5518 52.4341 48.6201C52.5171 48.6885 52.9834 48.9131 53.833 49.2939C54.3604 49.5332 54.707 49.7188 54.873 49.8506C55.0391 49.9775 55.1782 50.1509 55.2905 50.3706C55.4028 50.5903 55.459 50.8198 55.459 51.0591Z" fill="white"/>
</svg>
