<svg width="189" height="34" viewBox="0 0 189 34" fill="none" xmlns="http://www.w3.org/2000/svg">
<rect width="34" height="34" fill="#EDE4E0"/>
<path d="M18.5586 27H16.6367V12.4805C16.4883 12.6289 16.2695 12.8008 15.9805 12.9961C15.6992 13.1836 15.3789 13.3711 15.0195 13.5586C14.668 13.7461 14.293 13.9219 13.8945 14.0859C13.5039 14.25 13.1211 14.3789 12.7461 14.4727V12.5273C13.168 12.4102 13.6133 12.2539 14.082 12.0586C14.5586 11.8555 15.0234 11.6328 15.4766 11.3906C15.9375 11.1406 16.3711 10.8828 16.7773 10.6172C17.1836 10.3438 17.5352 10.0781 17.832 9.82031H18.5586V27ZM51.8164 14.6016C51.8164 14.0859 51.7344 13.6367 51.5703 13.2539C51.4141 12.8711 51.1953 12.5547 50.9141 12.3047C50.6406 12.0469 50.3164 11.8555 49.9414 11.7305C49.5664 11.6055 49.1602 11.543 48.7227 11.543C48.3477 11.543 47.9805 11.5938 47.6211 11.6953C47.2617 11.7969 46.9102 11.9375 46.5664 12.1172C46.2305 12.2969 45.9023 12.5117 45.582 12.7617C45.2695 13.0117 44.9766 13.2891 44.7031 13.5938V11.5312C45.2422 11.0078 45.8438 10.6094 46.5078 10.3359C47.1797 10.0547 47.9961 9.91406 48.957 9.91406C49.6445 9.91406 50.2812 10.0156 50.8672 10.2188C51.4531 10.4141 51.9609 10.7031 52.3906 11.0859C52.8203 11.4688 53.1562 11.9414 53.3984 12.5039C53.6484 13.0664 53.7734 13.7109 53.7734 14.4375C53.7734 15.1016 53.6953 15.7031 53.5391 16.2422C53.3906 16.7812 53.1602 17.2891 52.8477 17.7656C52.543 18.2422 52.1562 18.6992 51.6875 19.1367C51.2188 19.5742 50.668 20.0195 50.0352 20.4727C49.2461 21.0352 48.5938 21.5156 48.0781 21.9141C47.5703 22.3125 47.1641 22.6875 46.8594 23.0391C46.5625 23.3828 46.3516 23.7305 46.2266 24.082C46.1094 24.4258 46.0508 24.8242 46.0508 25.2773H54.418V27H44.0469V26.168C44.0469 25.4492 44.125 24.8164 44.2812 24.2695C44.4375 23.7227 44.6953 23.2031 45.0547 22.7109C45.4141 22.2188 45.8828 21.7266 46.4609 21.2344C47.0469 20.7422 47.7617 20.1875 48.6055 19.5703C49.2148 19.1328 49.7227 18.7148 50.1289 18.3164C50.543 17.918 50.875 17.5195 51.125 17.1211C51.375 16.7227 51.5508 16.3203 51.6523 15.9141C51.7617 15.5 51.8164 15.0625 51.8164 14.6016ZM86.6328 22.2422C86.6328 23 86.4883 23.6914 86.1992 24.3164C85.918 24.9336 85.5156 25.4648 84.9922 25.9102C84.4766 26.3477 83.8555 26.6875 83.1289 26.9297C82.4023 27.1719 81.6016 27.293 80.7266 27.293C79.125 27.293 77.8516 26.9883 76.9062 26.3789V24.3164C78.0391 25.207 79.3359 25.6523 80.7969 25.6523C81.3828 25.6523 81.9102 25.5781 82.3789 25.4297C82.8555 25.2812 83.2617 25.0664 83.5977 24.7852C83.9414 24.5039 84.2031 24.1641 84.3828 23.7656C84.5703 23.3672 84.6641 22.918 84.6641 22.418C84.6641 20.2227 83.1016 19.125 79.9766 19.125H78.582V17.4961H79.9062C82.6719 17.4961 84.0547 16.4648 84.0547 14.4023C84.0547 12.4961 83 11.543 80.8906 11.543C79.7031 11.543 78.5898 11.9414 77.5508 12.7383V10.875C78.6211 10.2344 79.8945 9.91406 81.3711 9.91406C82.0742 9.91406 82.7109 10.0117 83.2812 10.207C83.8516 10.4023 84.3398 10.6758 84.7461 11.0273C85.1523 11.3789 85.4648 11.8008 85.6836 12.293C85.9102 12.7852 86.0234 13.3281 86.0234 13.9219C86.0234 16.1328 84.9062 17.5547 82.6719 18.1875V18.2344C83.2422 18.2969 83.7695 18.4375 84.2539 18.6562C84.7383 18.8672 85.1562 19.1445 85.5078 19.4883C85.8594 19.832 86.1328 20.2383 86.3281 20.707C86.5312 21.168 86.6328 21.6797 86.6328 22.2422ZM118.121 10.1953V21.293H120.277V23.0508H118.121V27H116.223V23.0508H108.324V21.3867C109.059 20.5586 109.801 19.6758 110.551 18.7383C111.301 17.793 112.016 16.8359 112.695 15.8672C113.383 14.8984 114.016 13.9336 114.594 12.9727C115.18 12.0039 115.672 11.0781 116.07 10.1953H118.121ZM110.492 21.293H116.223V13.0664C115.637 14.0898 115.082 15.0039 114.559 15.8086C114.035 16.6133 113.535 17.3438 113.059 18C112.59 18.6562 112.141 19.25 111.711 19.7812C111.281 20.3125 110.875 20.8164 110.492 21.293ZM136.883 21.0234C136.523 21.0234 136.215 20.8945 135.957 20.6367C135.707 20.3789 135.582 20.0703 135.582 19.7109C135.582 19.3438 135.707 19.0312 135.957 18.7734C136.215 18.5156 136.523 18.3867 136.883 18.3867C137.25 18.3867 137.562 18.5156 137.82 18.7734C138.078 19.0312 138.207 19.3438 138.207 19.7109C138.207 20.0703 138.078 20.3789 137.82 20.6367C137.562 20.8945 137.25 21.0234 136.883 21.0234ZM142.086 21.0234C141.727 21.0234 141.418 20.8945 141.16 20.6367C140.91 20.3789 140.785 20.0703 140.785 19.7109C140.785 19.3438 140.91 19.0312 141.16 18.7734C141.418 18.5156 141.727 18.3867 142.086 18.3867C142.453 18.3867 142.766 18.5156 143.023 18.7734C143.281 19.0312 143.41 19.3438 143.41 19.7109C143.41 20.0703 143.281 20.3789 143.023 20.6367C142.766 20.8945 142.453 21.0234 142.086 21.0234ZM147.289 21.0234C146.93 21.0234 146.621 20.8945 146.363 20.6367C146.113 20.3789 145.988 20.0703 145.988 19.7109C145.988 19.3438 146.113 19.0312 146.363 18.7734C146.621 18.5156 146.93 18.3867 147.289 18.3867C147.656 18.3867 147.969 18.5156 148.227 18.7734C148.484 19.0312 148.613 19.3438 148.613 19.7109C148.613 20.0703 148.484 20.3789 148.227 20.6367C147.969 20.8945 147.656 21.0234 147.289 21.0234ZM171.535 27H169.613V12.4805C169.465 12.6289 169.246 12.8008 168.957 12.9961C168.676 13.1836 168.355 13.3711 167.996 13.5586C167.645 13.7461 167.27 13.9219 166.871 14.0859C166.48 14.25 166.098 14.3789 165.723 14.4727V12.5273C166.145 12.4102 166.59 12.2539 167.059 12.0586C167.535 11.8555 168 11.6328 168.453 11.3906C168.914 11.1406 169.348 10.8828 169.754 10.6172C170.16 10.3438 170.512 10.0781 170.809 9.82031H171.535V27ZM187.941 18.5273C187.941 19.9336 187.812 21.1797 187.555 22.2656C187.305 23.3516 186.938 24.2695 186.453 25.0195C185.977 25.7617 185.387 26.3281 184.684 26.7188C183.988 27.1016 183.195 27.293 182.305 27.293C181.461 27.293 180.707 27.1094 180.043 26.7422C179.387 26.3672 178.832 25.8242 178.379 25.1133C177.926 24.4023 177.582 23.5312 177.348 22.5C177.113 21.4609 176.996 20.2734 176.996 18.9375C176.996 17.4688 177.117 16.1719 177.359 15.0469C177.609 13.9219 177.973 12.9805 178.449 12.2227C178.926 11.457 179.516 10.8828 180.219 10.5C180.93 10.1094 181.742 9.91406 182.656 9.91406C186.18 9.91406 187.941 12.7852 187.941 18.5273ZM185.973 18.7148C185.973 13.9336 184.836 11.543 182.562 11.543C180.164 11.543 178.965 13.9766 178.965 18.8438C178.965 23.3828 180.141 25.6523 182.492 25.6523C184.812 25.6523 185.973 23.3398 185.973 18.7148Z" fill="#373737"/>
</svg>
