<svg width="1284" height="111" viewBox="0 0 1284 111" fill="none" xmlns="http://www.w3.org/2000/svg">
<circle cx="566" cy="20" r="19.5" fill="white" stroke="#665A48"/>
<path d="M944.5 20C944.5 30.7816 935.982 39.5 925.5 39.5C915.018 39.5 906.5 30.7816 906.5 20C906.5 9.21844 915.018 0.5 925.5 0.5C935.982 0.5 944.5 9.21844 944.5 20Z" fill="white" stroke="#665A48"/>
<path d="M106.125 25.7812C106.104 26.5729 106.281 27.0104 106.656 27.0938C106.802 27.1354 106.99 27.1562 107.219 27.1562V21H106.188C105.417 23.8958 104.052 25.6146 102.094 26.1562C101.552 26.3021 100.948 26.375 100.281 26.375C97.6354 26.375 95.9792 24.875 95.3125 21.875C95.0625 20.6875 94.9375 19.2188 94.9375 17.4688C94.9583 11.7604 96.8229 8.89583 100.531 8.875C102.49 8.875 103.938 9.67708 104.875 11.2812C105.312 12.0521 105.698 13.0417 106.031 14.25H107.125L107.031 8.09375C106.49 8.09375 106.167 8.26042 106.062 8.59375C106.021 8.80208 106.01 9.07292 106.031 9.40625C104.219 8.42708 102.219 7.9375 100.031 7.9375C96.5312 7.9375 93.8542 9.15625 92 11.5938C90.6875 13.3438 90.0312 15.3542 90.0312 17.625C90.0312 20.3125 90.8958 22.5729 92.625 24.4062C94.4792 26.3438 96.9167 27.3125 99.9375 27.3125C102.083 27.3125 104.146 26.8021 106.125 25.7812ZM116.562 26.1875H114.25V19.4375C114.396 17.25 114.927 15.9167 115.844 15.4375C115.99 15.375 116.125 15.3438 116.25 15.3438C116.479 15.3438 116.729 15.5833 117 16.0625C117.375 16.7292 117.781 17.1458 118.219 17.3125C118.427 17.375 118.656 17.4062 118.906 17.4062C119.74 17.4062 120.333 17.0104 120.688 16.2188C120.812 15.9479 120.875 15.6667 120.875 15.375C120.875 14.3333 120.365 13.6771 119.344 13.4062C119.094 13.3438 118.833 13.3125 118.562 13.3125C117.271 13.3125 116.135 13.8229 115.156 14.8438C114.719 15.3438 114.385 15.8854 114.156 16.4688L113.938 13.5625H108.469V14.375H110.281V24.5625C110.281 25.4792 109.917 26 109.188 26.125C108.979 26.1667 108.74 26.1875 108.469 26.1875V27H117.312C117.312 26.5208 117.177 26.2604 116.906 26.2188C116.802 26.1979 116.688 26.1875 116.562 26.1875ZM128.969 13.9062C130.302 13.9479 130.979 15.0833 131 17.3125C131 18.2917 130.708 18.8958 130.125 19.125C129.708 19.2708 129.083 19.3229 128.25 19.2812L126.25 19.1875C126.396 15.7292 127.302 13.9688 128.969 13.9062ZM134.812 23.7812L134.062 23.5312C133.479 24.8021 132.562 25.6667 131.312 26.125C130.812 26.3125 130.302 26.4062 129.781 26.4062C128.115 26.4062 127.042 25.3438 126.562 23.2188C126.375 22.3438 126.271 21.3021 126.25 20.0938L129.125 20.1875C132.479 20.2917 134.427 19.7604 134.969 18.5938C135.094 18.3021 135.156 17.9792 135.156 17.625C135.156 15.8542 134.25 14.5625 132.438 13.75C131.417 13.3125 130.26 13.0938 128.969 13.0938C126.615 13.0938 124.781 13.8958 123.469 15.5C122.469 16.75 121.969 18.3021 121.969 20.1562C121.969 23.1771 123.104 25.2812 125.375 26.4688C126.458 27.0312 127.688 27.3125 129.062 27.3125C131.5 27.3125 133.25 26.4583 134.312 24.75C134.521 24.4375 134.688 24.1146 134.812 23.7812ZM147.688 27H153.281C153.281 26.5208 153.156 26.25 152.906 26.1875C152.802 26.1667 152.677 26.1562 152.531 26.1562H151.094V6.6875H144.281V7.5H147.125V14.4375C146.062 13.5208 144.792 13.0625 143.312 13.0625C141.333 13.0625 139.719 13.8229 138.469 15.3438C137.385 16.7188 136.844 18.4479 136.844 20.5312C136.844 23.1146 137.688 25.0208 139.375 26.25C140.333 26.9583 141.396 27.3125 142.562 27.3125C144.5 27.3125 145.938 26.4896 146.875 24.8438C147.021 24.5938 147.146 24.3333 147.25 24.0625L147.688 27ZM141.125 20.1562C141.125 17.1146 141.781 15.1979 143.094 14.4062C143.469 14.1979 143.865 14.0938 144.281 14.0938C145.781 14.0938 146.708 15.25 147.062 17.5625C147.146 18.1875 147.188 18.8542 147.188 19.5625C147.188 22.6875 146.531 24.6771 145.219 25.5312C144.844 25.7604 144.438 25.875 144 25.875C142.542 25.875 141.635 24.6875 141.281 22.3125C141.177 21.6667 141.125 20.9479 141.125 20.1562ZM161.469 26.1875H160.312V13.5625H154.531V14.375H156.344V24.5625C156.344 25.4792 155.979 26 155.25 26.125C155.042 26.1667 154.802 26.1875 154.531 26.1875V27H162.219C162.219 26.5208 162.083 26.2604 161.812 26.2188C161.708 26.1979 161.594 26.1875 161.469 26.1875ZM160.594 9.46875C160.594 8.55208 160.188 7.875 159.375 7.4375C159.021 7.22917 158.646 7.125 158.25 7.125C157.354 7.125 156.677 7.53125 156.219 8.34375C156.031 8.69792 155.938 9.07292 155.938 9.46875C155.938 10.3854 156.344 11.0521 157.156 11.4688C157.51 11.6562 157.875 11.75 158.25 11.75C159.167 11.75 159.844 11.3646 160.281 10.5938C160.49 10.2396 160.594 9.86458 160.594 9.46875ZM163.312 14.5312H165.469V22.3438C165.469 25.3646 166.719 27.0208 169.219 27.3125C169.469 27.3333 169.719 27.3438 169.969 27.3438C171.573 27.3438 172.677 26.8229 173.281 25.7812C173.573 25.2604 173.802 24.5729 173.969 23.7188L173.125 23.5938C172.708 25.2812 172.094 26.2083 171.281 26.375C171.156 26.3958 171.031 26.4062 170.906 26.4062C170.135 26.4062 169.667 25.8646 169.5 24.7812C169.458 24.5312 169.438 24.2708 169.438 24V14.5312H173.562V13.7188H169.438V10.0938L165.469 10.75V13.7188H163.312V14.5312ZM185.438 20.2188C185.438 17.3021 185.792 15.4375 186.5 14.625C186.938 14.1458 187.552 13.9062 188.344 13.9062C189.677 13.9062 190.531 14.5833 190.906 15.9375C191.156 16.8125 191.281 18.1979 191.281 20.0938C191.281 23.1354 190.885 25.0521 190.094 25.8438C189.635 26.2812 189.042 26.5 188.312 26.5C187.021 26.5 186.188 25.8333 185.812 24.5C185.562 23.6042 185.438 22.1771 185.438 20.2188ZM188.5 13.0938C185.938 13.0938 183.969 13.9688 182.594 15.7188C181.635 16.9688 181.156 18.4271 181.156 20.0938C181.156 22.4479 181.969 24.3125 183.594 25.6875C184.885 26.7708 186.427 27.3125 188.219 27.3125C190.677 27.3125 192.604 26.4271 194 24.6562C195.042 23.3229 195.562 21.7812 195.562 20.0312C195.562 17.6979 194.74 15.875 193.094 14.5625C191.823 13.5833 190.292 13.0938 188.5 13.0938ZM205.219 26.1875H202.906V19.4375C203.052 17.25 203.583 15.9167 204.5 15.4375C204.646 15.375 204.781 15.3438 204.906 15.3438C205.135 15.3438 205.385 15.5833 205.656 16.0625C206.031 16.7292 206.438 17.1458 206.875 17.3125C207.083 17.375 207.312 17.4062 207.562 17.4062C208.396 17.4062 208.99 17.0104 209.344 16.2188C209.469 15.9479 209.531 15.6667 209.531 15.375C209.531 14.3333 209.021 13.6771 208 13.4062C207.75 13.3438 207.49 13.3125 207.219 13.3125C205.927 13.3125 204.792 13.8229 203.812 14.8438C203.375 15.3438 203.042 15.8854 202.812 16.4688L202.594 13.5625H197.125V14.375H198.938V24.5625C198.938 25.4792 198.573 26 197.844 26.125C197.635 26.1667 197.396 26.1875 197.125 26.1875V27H205.969C205.969 26.5208 205.833 26.2604 205.562 26.2188C205.458 26.1979 205.344 26.1875 205.219 26.1875ZM216.406 8.25V9.09375H218.906V26.1562H216.406V27H225.719C228.615 27 231 26.125 232.875 24.375C234.708 22.6458 235.625 20.4167 235.625 17.6875C235.625 14.2083 234.312 11.6146 231.688 9.90625C229.958 8.80208 227.938 8.25 225.625 8.25H216.406ZM225.719 9.09375C227.906 9.09375 229.365 10.1667 230.094 12.3125C230.51 13.625 230.719 15.3646 230.719 17.5312C230.719 21.8646 229.854 24.5417 228.125 25.5625C227.458 25.9583 226.635 26.1562 225.656 26.1562H223.281V9.09375H225.719ZM244.656 13.9062C245.99 13.9479 246.667 15.0833 246.688 17.3125C246.688 18.2917 246.396 18.8958 245.812 19.125C245.396 19.2708 244.771 19.3229 243.938 19.2812L241.938 19.1875C242.083 15.7292 242.99 13.9688 244.656 13.9062ZM250.5 23.7812L249.75 23.5312C249.167 24.8021 248.25 25.6667 247 26.125C246.5 26.3125 245.99 26.4062 245.469 26.4062C243.802 26.4062 242.729 25.3438 242.25 23.2188C242.062 22.3438 241.958 21.3021 241.938 20.0938L244.812 20.1875C248.167 20.2917 250.115 19.7604 250.656 18.5938C250.781 18.3021 250.844 17.9792 250.844 17.625C250.844 15.8542 249.938 14.5625 248.125 13.75C247.104 13.3125 245.948 13.0938 244.656 13.0938C242.302 13.0938 240.469 13.8958 239.156 15.5C238.156 16.75 237.656 18.3021 237.656 20.1562C237.656 23.1771 238.792 25.2812 241.062 26.4688C242.146 27.0312 243.375 27.3125 244.75 27.3125C247.188 27.3125 248.938 26.4583 250 24.75C250.208 24.4375 250.375 24.1146 250.5 23.7812ZM261.562 27.3125C263.604 27.3125 265.24 26.5417 266.469 25C267.552 23.6458 268.094 21.9271 268.094 19.8438C268.094 17.1354 267.25 15.1875 265.562 14C264.688 13.3958 263.719 13.0938 262.656 13.0938C260.51 13.1146 258.896 14.1771 257.812 16.2812V6.6875H252.062V7.53125H253.844V24.5312C253.844 25.4271 253.5 25.9479 252.812 26.0938C252.583 26.1354 252.333 26.1562 252.062 26.1562V27H256.844L257.094 24.8125C258.198 26.4583 259.688 27.2917 261.562 27.3125ZM261.125 14.5938C262.917 14.6354 263.812 16.5312 263.812 20.2812C263.792 24.3854 262.823 26.4479 260.906 26.4688C259.552 26.4688 258.635 25.5729 258.156 23.7812C257.927 22.9479 257.812 21.9792 257.812 20.875C257.812 18.0208 258.417 16.1042 259.625 15.125C260.083 14.7708 260.583 14.5938 261.125 14.5938ZM276.688 26.1875H275.531V13.5625H269.75V14.375H271.562V24.5625C271.562 25.4792 271.198 26 270.469 26.125C270.26 26.1667 270.021 26.1875 269.75 26.1875V27H277.438C277.438 26.5208 277.302 26.2604 277.031 26.2188C276.927 26.1979 276.812 26.1875 276.688 26.1875ZM275.812 9.46875C275.812 8.55208 275.406 7.875 274.594 7.4375C274.24 7.22917 273.865 7.125 273.469 7.125C272.573 7.125 271.896 7.53125 271.438 8.34375C271.25 8.69792 271.156 9.07292 271.156 9.46875C271.156 10.3854 271.562 11.0521 272.375 11.4688C272.729 11.6562 273.094 11.75 273.469 11.75C274.385 11.75 275.062 11.3646 275.5 10.5938C275.708 10.2396 275.812 9.86458 275.812 9.46875ZM278.531 14.5312H280.688V22.3438C280.688 25.3646 281.938 27.0208 284.438 27.3125C284.688 27.3333 284.938 27.3438 285.188 27.3438C286.792 27.3438 287.896 26.8229 288.5 25.7812C288.792 25.2604 289.021 24.5729 289.188 23.7188L288.344 23.5938C287.927 25.2812 287.312 26.2083 286.5 26.375C286.375 26.3958 286.25 26.4062 286.125 26.4062C285.354 26.4062 284.885 25.8646 284.719 24.7812C284.677 24.5312 284.656 24.2708 284.656 24V14.5312H288.781V13.7188H284.656V10.0938L280.688 10.75V13.7188H278.531V14.5312ZM312.469 25.7812C312.448 26.5729 312.625 27.0104 313 27.0938C313.146 27.1354 313.333 27.1562 313.562 27.1562V21H312.531C311.76 23.8958 310.396 25.6146 308.438 26.1562C307.896 26.3021 307.292 26.375 306.625 26.375C303.979 26.375 302.323 24.875 301.656 21.875C301.406 20.6875 301.281 19.2188 301.281 17.4688C301.302 11.7604 303.167 8.89583 306.875 8.875C308.833 8.875 310.281 9.67708 311.219 11.2812C311.656 12.0521 312.042 13.0417 312.375 14.25H313.469L313.375 8.09375C312.833 8.09375 312.51 8.26042 312.406 8.59375C312.365 8.80208 312.354 9.07292 312.375 9.40625C310.562 8.42708 308.562 7.9375 306.375 7.9375C302.875 7.9375 300.198 9.15625 298.344 11.5938C297.031 13.3438 296.375 15.3542 296.375 17.625C296.375 20.3125 297.24 22.5729 298.969 24.4062C300.823 26.3438 303.26 27.3125 306.281 27.3125C308.427 27.3125 310.49 26.8021 312.469 25.7812ZM326.312 27.3125C327.833 27.3125 328.781 26.7604 329.156 25.6562C329.281 25.2396 329.375 24.7083 329.438 24.0625L328.625 24.0312C328.5 25.4688 328.135 26.1979 327.531 26.2188C327.073 26.1771 326.844 25.6562 326.844 24.6562V18.125C326.844 15.5208 325.635 13.9167 323.219 13.3125C322.594 13.1667 321.917 13.0938 321.188 13.0938C318.354 13.0938 316.573 13.7083 315.844 14.9375C315.656 15.25 315.562 15.5833 315.562 15.9375C315.562 16.75 315.948 17.2604 316.719 17.4688C316.906 17.5312 317.104 17.5625 317.312 17.5625C318.208 17.5625 318.812 17.125 319.125 16.25C319.167 16.125 319.229 15.9167 319.312 15.625C319.542 14.7917 319.833 14.2708 320.188 14.0625C320.417 13.9583 320.677 13.9062 320.969 13.9062C321.948 13.9062 322.542 14.5 322.75 15.6875C322.833 16.125 322.875 16.6458 322.875 17.25V19.2812C317.521 19.3854 314.833 20.8021 314.812 23.5312C314.812 25.3854 315.625 26.5729 317.25 27.0938C317.729 27.2396 318.26 27.3125 318.844 27.3125C320.615 27.3125 321.917 26.6458 322.75 25.3125C322.917 25.0417 323.052 24.7604 323.156 24.4688C323.594 26.2604 324.646 27.2083 326.312 27.3125ZM320.469 25.9688C319.427 25.9271 318.896 25 318.875 23.1875C318.875 21.8125 319.438 20.9167 320.562 20.5C321.167 20.3125 321.938 20.1979 322.875 20.1562V23.1875C322.479 24.6458 321.844 25.5417 320.969 25.875C320.781 25.9375 320.615 25.9688 320.469 25.9688ZM338.312 26.1875H336V19.4375C336.146 17.25 336.677 15.9167 337.594 15.4375C337.74 15.375 337.875 15.3438 338 15.3438C338.229 15.3438 338.479 15.5833 338.75 16.0625C339.125 16.7292 339.531 17.1458 339.969 17.3125C340.177 17.375 340.406 17.4062 340.656 17.4062C341.49 17.4062 342.083 17.0104 342.438 16.2188C342.562 15.9479 342.625 15.6667 342.625 15.375C342.625 14.3333 342.115 13.6771 341.094 13.4062C340.844 13.3438 340.583 13.3125 340.312 13.3125C339.021 13.3125 337.885 13.8229 336.906 14.8438C336.469 15.3438 336.135 15.8854 335.906 16.4688L335.688 13.5625H330.219V14.375H332.031V24.5625C332.031 25.4792 331.667 26 330.938 26.125C330.729 26.1667 330.49 26.1875 330.219 26.1875V27H339.062C339.062 26.5208 338.927 26.2604 338.656 26.2188C338.552 26.1979 338.438 26.1875 338.312 26.1875ZM354.562 27H360.156C360.156 26.5208 360.031 26.25 359.781 26.1875C359.677 26.1667 359.552 26.1562 359.406 26.1562H357.969V6.6875H351.156V7.5H354V14.4375C352.938 13.5208 351.667 13.0625 350.188 13.0625C348.208 13.0625 346.594 13.8229 345.344 15.3438C344.26 16.7188 343.719 18.4479 343.719 20.5312C343.719 23.1146 344.562 25.0208 346.25 26.25C347.208 26.9583 348.271 27.3125 349.438 27.3125C351.375 27.3125 352.812 26.4896 353.75 24.8438C353.896 24.5938 354.021 24.3333 354.125 24.0625L354.562 27ZM348 20.1562C348 17.1146 348.656 15.1979 349.969 14.4062C350.344 14.1979 350.74 14.0938 351.156 14.0938C352.656 14.0938 353.583 15.25 353.938 17.5625C354.021 18.1875 354.062 18.8542 354.062 19.5625C354.062 22.6875 353.406 24.6771 352.094 25.5312C351.719 25.7604 351.312 25.875 350.875 25.875C349.417 25.875 348.51 24.6875 348.156 22.3125C348.052 21.6667 348 20.9479 348 20.1562ZM365.969 16.625C365.969 15.75 365.573 15.0938 364.781 14.6562C364.448 14.4896 364.104 14.4062 363.75 14.4062C362.875 14.4062 362.229 14.8021 361.812 15.5938C361.646 15.9271 361.562 16.2708 361.562 16.625C361.562 17.5208 361.958 18.1667 362.75 18.5625C363.062 18.7292 363.396 18.8125 363.75 18.8125C364.646 18.8125 365.302 18.4375 365.719 17.6875C365.885 17.3542 365.969 17 365.969 16.625ZM365.969 23.75C365.969 22.8958 365.615 22.2292 364.906 21.75C364.531 21.5 364.146 21.375 363.75 21.375C362.917 21.375 362.281 21.7812 361.844 22.5938C361.656 22.9688 361.562 23.3542 361.562 23.75C361.562 24.6458 361.958 25.2917 362.75 25.6875C363.062 25.8542 363.396 25.9375 363.75 25.9375C364.646 25.9375 365.302 25.5625 365.719 24.8125C365.885 24.4792 365.969 24.125 365.969 23.75Z" fill="#665A48"/>
<path d="M1018.28 9.09375C1020.45 9.13542 1021.54 10.5938 1021.56 13.4688C1021.52 16.3438 1020.39 17.7917 1018.16 17.8125H1016.5V9.09375H1018.28ZM1019.62 27C1019.5 26.4792 1019.22 26.1979 1018.78 26.1562H1016.5V18.75H1019.06C1022.67 18.75 1024.93 17.6146 1025.84 15.3438C1026.11 14.6979 1026.25 13.9792 1026.25 13.1875C1026.25 11.2292 1025.38 9.82292 1023.62 8.96875C1022.62 8.48958 1021.44 8.25 1020.06 8.25H1009.62V9.09375H1012.12V26.1562H1009.62V27H1019.62ZM1038.69 27.3125C1040.21 27.3125 1041.16 26.7604 1041.53 25.6562C1041.66 25.2396 1041.75 24.7083 1041.81 24.0625L1041 24.0312C1040.88 25.4688 1040.51 26.1979 1039.91 26.2188C1039.45 26.1771 1039.22 25.6562 1039.22 24.6562V18.125C1039.22 15.5208 1038.01 13.9167 1035.59 13.3125C1034.97 13.1667 1034.29 13.0938 1033.56 13.0938C1030.73 13.0938 1028.95 13.7083 1028.22 14.9375C1028.03 15.25 1027.94 15.5833 1027.94 15.9375C1027.94 16.75 1028.32 17.2604 1029.09 17.4688C1029.28 17.5312 1029.48 17.5625 1029.69 17.5625C1030.58 17.5625 1031.19 17.125 1031.5 16.25C1031.54 16.125 1031.6 15.9167 1031.69 15.625C1031.92 14.7917 1032.21 14.2708 1032.56 14.0625C1032.79 13.9583 1033.05 13.9062 1033.34 13.9062C1034.32 13.9062 1034.92 14.5 1035.12 15.6875C1035.21 16.125 1035.25 16.6458 1035.25 17.25V19.2812C1029.9 19.3854 1027.21 20.8021 1027.19 23.5312C1027.19 25.3854 1028 26.5729 1029.62 27.0938C1030.1 27.2396 1030.64 27.3125 1031.22 27.3125C1032.99 27.3125 1034.29 26.6458 1035.12 25.3125C1035.29 25.0417 1035.43 24.7604 1035.53 24.4688C1035.97 26.2604 1037.02 27.2083 1038.69 27.3125ZM1032.84 25.9688C1031.8 25.9271 1031.27 25 1031.25 23.1875C1031.25 21.8125 1031.81 20.9167 1032.94 20.5C1033.54 20.3125 1034.31 20.1979 1035.25 20.1562V23.1875C1034.85 24.6458 1034.22 25.5417 1033.34 25.875C1033.16 25.9375 1032.99 25.9688 1032.84 25.9688ZM1046.03 32C1045.66 32 1045.35 31.7188 1045.12 31.1562C1044.83 30.4271 1044.57 29.9688 1044.34 29.7812C1044.07 29.5938 1043.76 29.5 1043.41 29.5C1042.66 29.5 1042.18 29.8229 1041.97 30.4688C1041.93 30.6354 1041.91 30.7917 1041.91 30.9375C1041.91 31.625 1042.32 32.1875 1043.16 32.625C1043.74 32.9375 1044.42 33.0938 1045.19 33.0938C1046.94 33.0938 1048.39 32.0833 1049.53 30.0625C1049.97 29.3333 1050.39 28.4479 1050.78 27.4062L1055.47 15.25C1055.82 14.6875 1056.17 14.3854 1056.5 14.3438C1056.96 14.3438 1057.21 14.1875 1057.25 13.875C1057.27 13.7708 1057.28 13.6667 1057.28 13.5625H1052.44V14.3438H1054.78L1051.38 23.0625L1047.59 14.3438H1049.5V13.5625H1042.16V14.3438H1043.47L1049.56 27.6562C1048.56 30.1354 1047.6 31.5417 1046.69 31.875C1046.46 31.9583 1046.24 32 1046.03 32ZM1066.56 9.09375C1068.73 9.13542 1069.82 10.5938 1069.84 13.4688C1069.8 16.3438 1068.67 17.7917 1066.44 17.8125H1064.78V9.09375H1066.56ZM1067.91 27C1067.78 26.4792 1067.5 26.1979 1067.06 26.1562H1064.78V18.75H1067.34C1070.95 18.75 1073.21 17.6146 1074.12 15.3438C1074.4 14.6979 1074.53 13.9792 1074.53 13.1875C1074.53 11.2292 1073.66 9.82292 1071.91 8.96875C1070.91 8.48958 1069.72 8.25 1068.34 8.25H1057.91V9.09375H1060.41V26.1562H1057.91V27H1067.91ZM1086.97 27.3125C1088.49 27.3125 1089.44 26.7604 1089.81 25.6562C1089.94 25.2396 1090.03 24.7083 1090.09 24.0625L1089.28 24.0312C1089.16 25.4688 1088.79 26.1979 1088.19 26.2188C1087.73 26.1771 1087.5 25.6562 1087.5 24.6562V18.125C1087.5 15.5208 1086.29 13.9167 1083.88 13.3125C1083.25 13.1667 1082.57 13.0938 1081.84 13.0938C1079.01 13.0938 1077.23 13.7083 1076.5 14.9375C1076.31 15.25 1076.22 15.5833 1076.22 15.9375C1076.22 16.75 1076.6 17.2604 1077.38 17.4688C1077.56 17.5312 1077.76 17.5625 1077.97 17.5625C1078.86 17.5625 1079.47 17.125 1079.78 16.25C1079.82 16.125 1079.89 15.9167 1079.97 15.625C1080.2 14.7917 1080.49 14.2708 1080.84 14.0625C1081.07 13.9583 1081.33 13.9062 1081.62 13.9062C1082.6 13.9062 1083.2 14.5 1083.41 15.6875C1083.49 16.125 1083.53 16.6458 1083.53 17.25V19.2812C1078.18 19.3854 1075.49 20.8021 1075.47 23.5312C1075.47 25.3854 1076.28 26.5729 1077.91 27.0938C1078.39 27.2396 1078.92 27.3125 1079.5 27.3125C1081.27 27.3125 1082.57 26.6458 1083.41 25.3125C1083.57 25.0417 1083.71 24.7604 1083.81 24.4688C1084.25 26.2604 1085.3 27.2083 1086.97 27.3125ZM1081.12 25.9688C1080.08 25.9271 1079.55 25 1079.53 23.1875C1079.53 21.8125 1080.09 20.9167 1081.22 20.5C1081.82 20.3125 1082.59 20.1979 1083.53 20.1562V23.1875C1083.14 24.6458 1082.5 25.5417 1081.62 25.875C1081.44 25.9375 1081.27 25.9688 1081.12 25.9688ZM1098.69 26.1875H1097.12V6.6875H1090.72V7.5H1093.16V24.5C1093.16 25.3542 1092.81 25.875 1092.12 26.0625C1091.77 26.1458 1091.3 26.1875 1090.72 26.1875V27H1099.44C1099.44 26.5208 1099.3 26.2604 1099.03 26.2188C1098.93 26.1979 1098.81 26.1875 1098.69 26.1875Z" fill="#665A48"/>
<path d="M59.5 20C59.5 30.758 50.5574 39.5 39.5 39.5C28.4426 39.5 19.5 30.758 19.5 20C19.5 9.24201 28.4426 0.5 39.5 0.5C50.5574 0.5 59.5 9.24201 59.5 20Z" fill="white" stroke="#665A48"/>
<ellipse cx="39" cy="20" rx="10" ry="11" fill="#665A48"/>
<path d="M615.355 5.15731C614.238 6.5061 612.46 7.57489 610.684 7.41834C610.45 5.59988 611.335 3.65196 612.356 2.44468C613.469 1.06879 615.417 0.0812886 616.997 0C617.184 1.89974 616.45 3.76637 615.355 5.15731ZM616.979 7.77661C614.399 7.61704 612.184 9.27894 610.961 9.27894C609.711 9.27894 607.837 7.85488 605.797 7.90305C603.152 7.93617 600.678 9.46861 599.333 11.9344C596.534 16.8388 598.606 24.1006 601.296 28.0987C602.611 30.0738 604.185 32.2384 606.26 32.1782C608.223 32.0969 609.013 30.8626 611.379 30.8626C613.775 30.8626 614.455 32.1782 616.545 32.1301C618.692 32.0969 620.052 30.155 621.367 28.18C622.867 25.9371 623.484 23.7393 623.517 23.6309C623.484 23.5827 619.357 21.969 619.327 17.1067C619.295 13.0272 622.573 11.0854 622.712 10.974C620.871 8.15294 617.965 7.85489 616.976 7.77962L616.979 7.77661ZM631.872 2.25501V31.9253H636.37V21.7823H642.59C648.264 21.7823 652.255 17.7841 652.255 12.0126C652.255 6.22912 648.345 2.25802 642.745 2.25802L631.872 2.25501ZM636.37 6.14481H641.551C645.447 6.14481 647.677 8.27638 647.677 12.0247C647.677 15.773 645.447 17.9226 641.522 17.9226H636.37V6.14481ZM660.447 32.1451C663.276 32.1451 665.889 30.6879 667.083 28.3637H667.178V31.9253H671.334V17.1519C671.334 12.8888 667.997 10.1159 662.846 10.1159C658.083 10.1159 654.556 12.9219 654.434 16.7635H658.469C658.811 14.93 660.45 13.7378 662.724 13.7378C665.476 13.7378 667.008 15.0534 667.008 17.471V19.0998L661.412 19.446C656.183 19.7742 653.368 21.9539 653.368 25.7655C653.368 29.6071 656.278 32.1481 660.45 32.1481L660.447 32.1451ZM661.67 28.6316C659.271 28.6316 657.742 27.4545 657.742 25.6541C657.742 23.7874 659.212 22.6885 662.008 22.5139L667.005 22.2008V23.8778C667.005 26.6566 664.701 28.6316 661.652 28.6316H661.67ZM676.887 40C681.26 40 683.321 38.2749 685.114 33.0844L693 10.411H688.439L683.151 27.9241H683.056L677.768 10.411H673.068L680.678 32.0036L680.274 33.3193C679.577 35.5321 678.466 36.3902 676.486 36.3902C676.13 36.3902 675.45 36.345 675.171 36.3149V39.8766C675.432 39.9518 676.548 39.9849 676.872 39.9849L676.887 40Z" fill="#665A48"/>
<path d="M992.062 11.84C991.774 11.5178 991.454 11.2258 991.107 10.9684C991.25 9.8519 991.151 8.71784 990.819 7.64258C990.486 6.56732 989.927 5.57586 989.179 4.73502C987.372 2.69835 984.292 1.66669 980.024 1.66669H969.669C968.92 1.6683 968.197 1.93609 967.627 2.4222C967.058 2.9083 966.681 3.581 966.562 4.32002L962.245 31.6634C962.184 32.0299 962.204 32.4054 962.303 32.7636C962.402 33.1218 962.577 33.4541 962.818 33.7373C963.059 34.0205 963.358 34.2479 963.695 34.4035C964.033 34.5592 964.4 34.6393 964.772 34.6384H969.212L969.075 35.505C969.02 35.854 969.041 36.2109 969.136 36.5511C969.232 36.8912 969.401 37.2066 969.63 37.4754C969.859 37.7442 970.144 37.9601 970.465 38.1082C970.786 38.2563 971.135 38.3331 971.489 38.3334H976.88C977.578 38.3386 978.255 38.0948 978.79 37.6458C979.325 37.1968 979.682 36.5719 979.797 35.8834L980.865 29.165L980.884 29.0734H981.382C988.102 29.0734 992.299 25.7517 993.524 19.47C993.897 18.1729 993.96 16.8059 993.706 15.4801C993.452 14.1544 992.888 12.9072 992.062 11.84ZM971.07 22.84L969.88 30.3984L969.737 31.305H965.677L969.829 5.00002H980.024C983.25 5.00002 985.554 5.67335 986.679 6.94002C987.209 7.55736 987.579 8.2961 987.755 9.0907C987.932 9.88529 987.909 10.7112 987.69 11.495L987.66 11.6834C987.64 11.81 987.622 11.9334 987.587 12.0934C987.265 14.4745 986.075 16.6529 984.245 18.21C982.191 19.6388 979.715 20.3334 977.217 20.1817H974.179C973.428 20.179 972.701 20.4459 972.131 20.9337C971.56 21.4216 971.184 22.0981 971.07 22.84ZM990.254 18.8317C989.334 23.545 986.515 25.74 981.382 25.74H980.575C979.876 25.735 979.199 25.9795 978.664 26.4295C978.129 26.8795 977.773 27.5056 977.659 28.195L976.575 34.985L972.529 35L973.325 29.9434L974.345 23.5217H977.21C977.472 23.5217 977.702 23.4834 977.957 23.4734C978.555 23.4534 979.152 23.43 979.712 23.36C980.054 23.3184 980.367 23.24 980.695 23.18C981.15 23.0967 981.604 23.0134 982.03 22.895C982.347 22.8067 982.644 22.6917 982.947 22.585C983.344 22.4434 983.737 22.295 984.109 22.12C984.384 21.9879 984.654 21.845 984.919 21.6917C985.271 21.4924 985.612 21.2743 985.94 21.0384C986.177 20.8684 986.41 20.6917 986.632 20.505C986.946 20.2334 987.245 19.944 987.527 19.6384C987.715 19.4384 987.907 19.2434 988.082 19.0267C988.371 18.6579 988.638 18.2722 988.882 17.8717C989.009 17.6684 989.15 17.48 989.269 17.2667C989.606 16.6485 989.896 16.0055 990.135 15.3434C990.15 15.3034 990.17 15.27 990.185 15.23C990.192 15.2134 990.202 15.1967 990.209 15.1767C990.539 16.3708 990.555 17.6301 990.254 18.8317Z" fill="#665A48"/>
</svg>
