<svg width="122" height="155" viewBox="0 0 122 155" fill="none" xmlns="http://www.w3.org/2000/svg">
<path d="M113.286 149.259H69.5109C77.6789 142.625 85.2766 135.333 92.2262 127.459C111.695 105.335 122 82.1069 122 60.2778C122 44.2911 115.573 28.9592 104.134 17.655C92.6938 6.35068 77.1782 0 61 0C44.8218 0 29.3062 6.35068 17.8665 17.655C6.42676 28.9592 0 44.2911 0 60.2778C0 82.1069 10.2901 105.335 29.7738 127.459C36.7234 135.333 44.3211 142.625 52.489 149.259H8.71428C7.94389 149.259 7.20506 149.562 6.66031 150.1C6.11556 150.638 5.80952 151.368 5.80952 152.13C5.80952 152.891 6.11556 153.621 6.66031 154.159C7.20506 154.698 7.94389 155 8.71428 155H113.286C114.056 155 114.795 154.698 115.34 154.159C115.884 153.621 116.19 152.891 116.19 152.13C116.19 151.368 115.884 150.638 115.34 150.1C114.795 149.562 114.056 149.259 113.286 149.259ZM34.0583 123.591C21.1685 108.931 5.80952 86.0394 5.80952 60.2778C5.80952 45.8137 11.6242 31.9419 21.9744 21.7143C32.3247 11.4866 46.3626 5.74074 61 5.74074C75.6374 5.74074 89.6753 11.4866 100.026 21.7143C110.376 31.9419 116.19 45.8137 116.19 60.2778C116.19 86.0394 100.832 108.931 87.9417 123.591C79.8261 132.775 70.8005 141.134 61 148.542C51.1995 141.134 42.1739 132.775 34.0583 123.591ZM87.1429 60.2778C87.1429 55.1684 85.6096 50.1738 82.737 45.9255C79.8644 41.6773 75.7814 38.3661 71.0044 36.4109C66.2274 34.4556 60.971 33.944 55.8998 34.9408C50.8286 35.9376 46.1704 38.398 42.5142 42.0109C38.8581 45.6237 36.3682 50.2268 35.3595 55.2379C34.3507 60.2491 34.8685 65.4433 36.8471 70.1638C38.8258 74.8842 42.1766 78.9188 46.4758 81.7574C50.775 84.596 55.8294 86.1111 61 86.1111C67.9335 86.1111 74.5831 83.3894 79.4858 78.5447C84.3885 73.7 87.1429 67.1292 87.1429 60.2778ZM40.6667 60.2778C40.6667 56.3038 41.8592 52.4191 44.0934 49.1149C46.3277 45.8107 49.5033 43.2354 53.2188 41.7146C56.9342 40.1939 61.0225 39.796 64.9668 40.5713C68.9111 41.3465 72.5342 43.2602 75.3778 46.0702C78.2215 48.8802 80.1581 52.4603 80.9426 56.3579C81.7272 60.2555 81.3245 64.2954 79.7855 67.9669C78.2466 71.6383 75.6404 74.7764 72.2966 76.9842C68.9528 79.192 65.0216 80.3704 61 80.3704C55.6073 80.3704 50.4354 78.2535 46.6222 74.4854C42.8089 70.7173 40.6667 65.6067 40.6667 60.2778Z" fill="white"/>
</svg>
