<svg width="110" height="82" viewBox="0 0 110 82" fill="none" xmlns="http://www.w3.org/2000/svg">
<path d="M23.1821 36.437V9.99483C23.1821 5.64817 25.8659 2.38818 29.0864 2.38818H81.1511C84.3716 2.38818 87.0554 6.0104 87.0554 9.99483V36.437" stroke="white" stroke-width="4" stroke-linecap="round" stroke-linejoin="round"/>
<path d="M25.5974 57.4458C24.2556 57.4458 23.1821 55.9969 23.1821 54.1858V36.0747C23.1821 34.2636 22.1086 32.8147 20.7667 32.8147H10.5685C5.46933 32.8147 1.71208 37.5236 2.78558 41.508C5.46933 50.2013 14.0573 75.1946 14.0573 75.1946C15.1308 78.0924 17.8146 79.5413 19.4248 79.5413H88.6656C91.8861 79.5413 94.8382 77.7302 95.9117 75.1946C95.9117 75.1946 104.5 49.8391 107.183 41.508C108.257 37.8858 104.768 32.8147 99.4006 32.8147H89.2023C87.8604 32.8147 86.7869 34.2636 86.7869 36.0747V54.1858C86.7869 55.9969 85.7134 57.4458 84.3716 57.4458H25.5974Z" stroke="white" stroke-width="4" stroke-miterlimit="10" stroke-linecap="round" stroke-linejoin="round"/>
</svg>
