<svg width="23" height="23" viewBox="0 0 23 23" fill="none" xmlns="http://www.w3.org/2000/svg">
<path d="M2.4806 12.8064C2.42351 12.8601 2.37803 12.925 2.34693 12.997C2.31584 13.069 2.2998 13.1466 2.2998 13.225C2.2998 13.3034 2.31584 13.381 2.34693 13.453C2.37803 13.525 2.42351 13.5898 2.4806 13.6436L7.3681 18.2436C7.42307 18.2954 7.4877 18.3358 7.55831 18.3627C7.62892 18.3895 7.70413 18.4021 7.77962 18.3999C7.9321 18.3954 8.07653 18.3304 8.18115 18.2194C8.28576 18.1084 8.34199 17.9604 8.33746 17.8079C8.33522 17.7324 8.31813 17.6581 8.28716 17.5892C8.2562 17.5203 8.21197 17.4582 8.157 17.4064L4.32405 13.8L17.25 13.8C18.165 13.8 19.0426 13.4365 19.6896 12.7895C20.3366 12.1425 20.7 11.265 20.7 10.35L20.7 5.17498C20.7 5.02248 20.6395 4.87623 20.5316 4.76839C20.4238 4.66056 20.2775 4.59998 20.125 4.59998C19.9725 4.59998 19.8263 4.66056 19.7185 4.76839C19.6106 4.87623 19.55 5.02248 19.55 5.17498L19.55 10.35C19.55 10.96 19.3077 11.545 18.8764 11.9763C18.4451 12.4077 17.86 12.65 17.25 12.65L4.32405 12.65L8.157 9.04358C8.26802 8.93897 8.33293 8.79453 8.33746 8.64206C8.34199 8.48958 8.28576 8.34155 8.18115 8.23053C8.07653 8.11951 7.9321 8.0546 7.77962 8.05007C7.62715 8.04554 7.47912 8.10177 7.3681 8.20638L2.4806 12.8064Z" fill="#313131"/>
</svg>
