<svg width="130" height="130" viewBox="0 0 130 130" fill="none" xmlns="http://www.w3.org/2000/svg">
<path d="M32.4811 53.9573C26.5289 53.9573 21.6589 58.7925 21.6589 64.7022C21.6589 70.6119 26.5289 75.4471 32.4811 75.4471C38.4333 75.4471 43.3033 70.6119 43.3033 64.7022C43.3033 58.7925 38.4333 53.9573 32.4811 53.9573ZM97.4143 53.9573C91.4621 53.9573 86.5921 58.7925 86.5921 64.7022C86.5921 70.6119 91.4621 75.4471 97.4143 75.4471C103.367 75.4471 108.237 70.6119 108.237 64.7022C108.237 58.7925 103.367 53.9573 97.4143 53.9573ZM64.9477 53.9573C58.9955 53.9573 54.1255 58.7925 54.1255 64.7022C54.1255 70.6119 58.9955 75.4471 64.9477 75.4471C70.8999 75.4471 75.7699 70.6119 75.7699 64.7022C75.7699 58.7925 70.8999 53.9573 64.9477 53.9573Z" fill="white"/>
</svg>
