<svg width="75" height="92" viewBox="0 0 75 92" fill="none" xmlns="http://www.w3.org/2000/svg">
<path d="M72.8749 0.473145C72.3553 0.473145 71.857 0.65067 71.4896 0.966668C71.1222 1.28267 70.9158 1.71125 70.9158 2.15814V10.5831H51.3247V2.15814C51.3247 1.71125 51.1183 1.28267 50.7509 0.966668C50.3835 0.65067 49.8852 0.473145 49.3656 0.473145C48.846 0.473145 48.3477 0.65067 47.9803 0.966668C47.6129 1.28267 47.4065 1.71125 47.4065 2.15814V10.5831H27.8154V2.15814C27.8154 1.71125 27.609 1.28267 27.2416 0.966668C26.8742 0.65067 26.3759 0.473145 25.8563 0.473145C25.3367 0.473145 24.8384 0.65067 24.471 0.966668C24.1036 1.28267 23.8972 1.71125 23.8972 2.15814V10.5831H4.30615V2.15814C4.30615 1.71125 4.09975 1.28267 3.73234 0.966668C3.36494 0.65067 2.86663 0.473145 2.34705 0.473145C1.82746 0.473145 1.32915 0.65067 0.961749 0.966668C0.594345 1.28267 0.387939 1.71125 0.387939 2.15814V89.7778C0.387939 90.2247 0.594345 90.6533 0.961749 90.9692C1.32915 91.2852 1.82746 91.4628 2.34705 91.4628C2.86663 91.4628 3.36494 91.2852 3.73234 90.9692C4.09975 90.6533 4.30615 90.2247 4.30615 89.7778V81.3528H23.8972V89.7778C23.8972 90.2247 24.1036 90.6533 24.471 90.9692C24.8384 91.2852 25.3367 91.4628 25.8563 91.4628C26.3759 91.4628 26.8742 91.2852 27.2416 90.9692C27.609 90.6533 27.8154 90.2247 27.8154 89.7778V81.3528H47.4065V89.7778C47.4065 90.2247 47.6129 90.6533 47.9803 90.9692C48.3477 91.2852 48.846 91.4628 49.3656 91.4628C49.8852 91.4628 50.3835 91.2852 50.7509 90.9692C51.1183 90.6533 51.3247 90.2247 51.3247 89.7778V81.3528H70.9158V89.7778C70.9158 90.2247 71.1222 90.6533 71.4896 90.9692C71.857 91.2852 72.3553 91.4628 72.8749 91.4628C73.3945 91.4628 73.8928 91.2852 74.2602 90.9692C74.6276 90.6533 74.834 90.2247 74.834 89.7778V2.15814C74.834 1.71125 74.6276 1.28267 74.2602 0.966668C73.8928 0.65067 73.3945 0.473145 72.8749 0.473145ZM4.30615 13.9531H70.9158V77.9828H4.30615V13.9531ZM37.611 64.5029C37.9492 64.503 38.2817 64.4278 38.5761 64.2845C38.8705 64.1413 39.1167 63.935 39.2909 63.6857L51.0455 46.8357C51.2286 46.5737 51.3253 46.2737 51.3253 45.968C51.3253 45.6622 51.2286 45.3623 51.0455 45.1002L39.2909 28.2503C39.1168 28.0007 38.8706 27.7942 38.5762 27.6509C38.2818 27.5075 37.9493 27.4322 37.611 27.4322C37.2727 27.4322 36.9401 27.5075 36.6457 27.6509C36.3513 27.7942 36.1051 28.0007 35.931 28.2503L24.1764 45.1002C23.9933 45.3623 23.8966 45.6622 23.8966 45.968C23.8966 46.2737 23.9933 46.5737 24.1764 46.8357L35.931 63.6857C36.1052 63.935 36.3515 64.1413 36.6459 64.2845C36.9403 64.4278 37.2728 64.503 37.611 64.5029ZM37.611 32.3911L47.0784 45.968L37.611 59.5448L28.1436 45.968L37.611 32.3911Z" fill="white"/>
</svg>
