<svg width="74" height="74" viewBox="0 0 74 74" fill="none" xmlns="http://www.w3.org/2000/svg">
<path d="M25.9938 72.1477C29.5385 73.2185 33.12 73.8462 36.9231 73.8462C46.7157 73.8462 56.1072 69.9561 63.0316 63.0316C69.9561 56.1072 73.8462 46.7157 73.8462 36.9231C73.8462 32.0743 72.8911 27.2729 71.0356 22.7932C69.18 18.3135 66.4603 14.2431 63.0316 10.8145C59.603 7.38589 55.5326 4.66616 51.0529 2.8106C46.5732 0.955044 41.7719 0 36.9231 0C32.0743 0 27.2729 0.955044 22.7932 2.8106C18.3135 4.66616 14.2431 7.38589 10.8145 10.8145C3.8901 17.7389 0 27.1305 0 36.9231C0 52.6154 9.85846 66.0923 23.7785 71.4092C23.4462 68.5292 23.1138 63.7662 23.7785 60.48L28.0246 42.24C28.0246 42.24 26.9538 40.0985 26.9538 36.7015C26.9538 31.6062 30.1292 27.8031 33.7477 27.8031C36.9231 27.8031 38.4 30.1292 38.4 33.12C38.4 36.2954 36.2954 40.8369 35.2246 45.1938C34.5969 48.8123 37.1446 51.9877 40.8369 51.9877C47.4092 51.9877 52.5046 44.9723 52.5046 35.0769C52.5046 26.2154 46.1538 20.16 37.0338 20.16C26.6215 20.16 20.4923 27.9138 20.4923 36.0738C20.4923 39.2492 21.5262 42.4615 23.2246 44.5662C23.5569 44.7877 23.5569 45.0831 23.4462 45.6369L22.3754 49.6615C22.3754 50.2892 21.9692 50.5108 21.3415 50.0677C16.6154 48 13.8831 41.28 13.8831 35.8523C13.8831 24.1846 22.1538 13.5877 38.1046 13.5877C50.8062 13.5877 60.7015 22.7077 60.7015 34.8185C60.7015 47.52 52.8369 57.7108 41.5754 57.7108C37.9938 57.7108 34.4862 55.7908 33.2308 53.5385L30.7569 62.2892C29.9077 65.4646 27.5815 69.7108 25.9938 72.2585V72.1477Z" fill="white"/>
</svg>
