<svg width="76" height="62" viewBox="0 0 76 62" fill="none" xmlns="http://www.w3.org/2000/svg">
<path d="M75.264 7.26443C72.4463 8.51095 69.4583 9.32982 66.3988 9.69397C69.6224 7.7634 72.0343 4.72685 73.1852 1.14997C70.1575 2.95182 66.8382 4.21458 63.3822 4.89766C61.0582 2.41118 57.9779 0.762141 54.6201 0.206898C51.2623 -0.348346 47.8152 0.221321 44.8145 1.82733C41.8139 3.43335 39.4279 5.98572 38.0275 9.08767C36.6271 12.1896 36.2908 15.6673 37.0708 18.9801C30.9302 18.6729 24.923 17.0776 19.439 14.2978C13.9551 11.518 9.11719 7.61583 5.23938 2.84474C3.86692 5.20209 3.14568 7.88188 3.14954 10.6097C3.14954 15.9635 5.87815 20.6934 10.0172 23.4626C7.56559 23.3853 5.16793 22.7232 3.024 21.5315V21.7198C3.02389 25.2861 4.25735 28.7427 6.51519 31.5032C8.77303 34.2638 11.9162 36.1584 15.4117 36.8657C13.1359 37.4831 10.7494 37.574 8.43323 37.1315C9.41879 40.2013 11.3399 42.8859 13.9274 44.8093C16.5149 46.7327 19.6392 47.7986 22.8628 47.8577C19.6592 50.3738 15.991 52.2337 12.068 53.331C8.14497 54.4284 4.04414 54.7416 0 54.2527C7.05866 58.792 15.2755 61.2019 23.6677 61.1943C52.0763 61.1943 67.6062 37.6632 67.6062 17.2558C67.6062 16.5912 67.5914 15.9192 67.5618 15.2583C70.5836 13.0738 73.1918 10.3644 75.264 7.26443Z" fill="white"/>
</svg>
