<svg width="296" height="298" viewBox="0 0 296 298" fill="none" xmlns="http://www.w3.org/2000/svg">
<path d="M59.8799 107.512L65.3115 107.406C72.1846 107.406 77.3789 109.076 80.8945 112.416C84.4102 115.756 86.168 119.966 86.168 125.046C86.168 128.649 85.3242 131.787 83.6367 134.459C81.9492 137.113 79.8398 139.117 77.3086 140.471C74.7773 141.824 71.4023 142.501 67.1836 142.501C66.2344 142.501 65.0303 142.448 63.5713 142.343C60.9697 142.132 59.5107 142.026 59.1943 142.026C53.4287 142.026 50.0361 142.088 49.0166 142.211C48.4365 142.211 48.1465 142.062 48.1465 141.763C48.1465 141.552 48.252 141.411 48.4629 141.341C48.6738 141.271 49.3242 141.165 50.4141 141.024C51.8203 140.831 52.8047 140.269 53.3672 139.337C53.9473 138.405 54.3076 135.505 54.4482 130.636L54.8701 116.688C54.8701 115.07 54.7559 113.515 54.5273 112.021C54.3164 110.509 53.9736 109.542 53.499 109.12C53.042 108.681 52.3037 108.382 51.2842 108.224C50.5459 108.118 50.1768 107.916 50.1768 107.617C50.1768 107.248 50.3613 107.063 50.7305 107.063C51.082 107.063 52.1543 107.143 53.9473 107.301C55.7578 107.441 57.7354 107.512 59.8799 107.512ZM58.957 132.982C58.957 135.303 59.1064 136.964 59.4053 137.966C59.7217 138.95 60.3809 139.768 61.3828 140.418C62.4023 141.051 64.0283 141.367 66.2607 141.367C69.46 141.367 72.0527 140.611 74.0391 139.1C76.0254 137.588 77.5723 135.575 78.6797 133.062C79.8047 130.548 80.3672 127.876 80.3672 125.046C80.3672 120.862 79.0928 117.074 76.5439 113.682C73.9951 110.289 70.0312 108.593 64.6523 108.593C62.2617 108.593 60.8643 108.672 60.46 108.83C60.0732 108.988 59.8799 109.454 59.8799 110.228C59.8799 110.913 59.8184 112.135 59.6953 113.893C59.5195 116.459 59.4053 118.463 59.3525 119.904L59.1152 127.155C59.0098 130.548 58.957 132.49 58.957 132.982ZM94.7637 129.687C94.6934 130.583 94.6582 131.295 94.6582 131.822C94.6582 134.318 95.3877 136.428 96.8467 138.15C98.3232 139.873 100.143 140.734 102.305 140.734C104.414 140.734 106.374 139.891 108.185 138.203C108.712 137.729 109.046 137.491 109.187 137.491C109.468 137.491 109.617 137.72 109.635 138.177C108.967 139.407 107.824 140.444 106.207 141.288C104.59 142.132 102.788 142.554 100.802 142.554C97.8838 142.554 95.4141 141.508 93.3926 139.416C91.3711 137.307 90.3604 134.644 90.3604 131.427C90.3604 127.981 91.4678 125.107 93.6826 122.805C95.915 120.502 98.2969 119.351 100.828 119.351C103.201 119.351 105.346 120.256 107.262 122.066C109.178 123.859 110.136 125.969 110.136 128.395C110.136 128.764 110.074 129.036 109.951 129.212C109.846 129.388 109.178 129.476 107.947 129.476L94.7637 129.687ZM94.7637 128.315C97.0488 128.421 99.2637 128.474 101.408 128.474L102.806 128.395C103.86 128.359 104.669 128.157 105.231 127.788C105.794 127.401 106.075 126.733 106.075 125.784C106.075 124.308 105.565 123.024 104.546 121.935C103.544 120.827 102.357 120.273 100.986 120.273C99.7207 120.273 98.4551 120.906 97.1895 122.172C95.9414 123.42 95.1328 125.468 94.7637 128.315ZM130.386 135.013C130.386 137.052 129.63 138.81 128.118 140.286C126.606 141.745 124.813 142.475 122.739 142.475C121.509 142.475 120.041 142.079 118.336 141.288C117.404 140.866 116.851 140.655 116.675 140.655C116.376 140.655 116.112 140.84 115.884 141.209C115.603 141.701 115.339 141.947 115.093 141.947C114.882 141.947 114.75 141.701 114.697 141.209C114.645 140.699 114.609 139.557 114.592 137.781C114.574 136.252 114.548 135.268 114.513 134.828C114.513 134.178 114.68 133.853 115.014 133.853C115.207 133.853 115.356 134.02 115.462 134.354C116.147 136.357 117.105 138.062 118.336 139.469C119.584 140.857 121.043 141.552 122.713 141.552C123.891 141.552 124.937 141.191 125.851 140.471C126.765 139.732 127.222 138.739 127.222 137.491C127.222 135.558 125.543 133.844 122.186 132.35C119.883 131.312 118.345 130.557 117.571 130.082C116.798 129.607 116.191 128.966 115.752 128.157C115.312 127.349 115.093 126.47 115.093 125.521C115.093 123.71 115.778 122.198 117.149 120.985C118.521 119.755 120.182 119.14 122.133 119.14C123.574 119.14 125.156 119.588 126.879 120.484C127.16 120.625 127.406 120.695 127.617 120.695C127.793 120.695 127.986 120.555 128.197 120.273C128.408 120.01 128.575 119.878 128.698 119.878C128.856 119.878 128.979 119.948 129.067 120.089C129.155 120.212 129.252 120.985 129.357 122.409C129.463 123.815 129.516 124.976 129.516 125.89C129.516 126.452 129.366 126.733 129.067 126.733C128.804 126.733 128.593 126.479 128.435 125.969C128.294 125.494 127.872 124.589 127.169 123.253C126.466 121.917 125.692 121.064 124.849 120.695C124.022 120.326 123.205 120.142 122.396 120.142C121.131 120.142 120.094 120.449 119.285 121.064C118.477 121.68 118.072 122.479 118.072 123.464C118.072 124.079 118.239 124.633 118.573 125.125C118.907 125.617 119.215 125.986 119.496 126.232C119.795 126.479 121.474 127.287 124.532 128.658C126.431 129.52 127.679 130.188 128.276 130.662C128.874 131.119 129.375 131.743 129.779 132.534C130.184 133.325 130.386 134.151 130.386 135.013ZM139.324 106.457C139.992 106.457 140.59 106.703 141.117 107.195C141.645 107.688 141.908 108.224 141.908 108.804C141.908 109.489 141.688 110.078 141.249 110.57C140.827 111.062 140.238 111.309 139.482 111.309C138.814 111.309 138.217 111.098 137.689 110.676C137.162 110.236 136.898 109.647 136.898 108.909C136.898 108.188 137.118 107.6 137.558 107.143C138.015 106.686 138.604 106.457 139.324 106.457ZM142.251 119.351L142.225 125.283L142.277 130.82V134.986L142.251 138.15C142.251 139.416 142.453 140.225 142.857 140.576C143.279 140.91 143.903 141.095 144.729 141.13C145.696 141.183 146.18 141.385 146.18 141.736C146.18 142.018 145.995 142.158 145.626 142.158C145.485 142.158 145.327 142.149 145.151 142.132C143.517 141.921 141.996 141.815 140.59 141.815C138.34 141.815 136.784 141.886 135.923 142.026C135.747 142.062 135.571 142.079 135.396 142.079C134.974 142.079 134.763 141.921 134.763 141.604C134.763 141.288 135.255 141.068 136.239 140.945C137.224 140.822 137.848 140.611 138.111 140.312C138.393 139.996 138.533 139.117 138.533 137.676L138.691 126.76C138.691 123.842 138.472 122.119 138.032 121.592C137.593 121.047 136.74 120.757 135.475 120.722C135.053 120.722 134.842 120.581 134.842 120.3C134.842 120.142 134.912 120.019 135.053 119.931C135.193 119.843 136.239 119.729 138.19 119.588C140.142 119.447 141.495 119.368 142.251 119.351ZM168.064 123.095C168.855 124.36 169.251 125.749 169.251 127.261C169.251 129.528 168.504 131.462 167.01 133.062C165.498 134.661 163.336 135.566 160.523 135.777C158.713 135.918 157.474 136.076 156.806 136.252C156.155 136.41 155.558 136.744 155.013 137.254C154.468 137.746 154.195 138.238 154.195 138.73C154.195 139.469 154.617 140.014 155.461 140.365C156.287 140.717 158.036 140.937 160.708 141.024C164.628 141.165 167.247 141.341 168.565 141.552C169.884 141.745 171.009 142.352 171.94 143.371C172.89 144.408 173.364 145.735 173.364 147.353C173.364 150.024 172.187 152.195 169.831 153.865C167.476 155.535 163.995 156.37 159.39 156.37C155.979 156.37 153.413 155.931 151.69 155.052C149.985 154.173 149.133 152.863 149.133 151.123C149.133 148.381 151.734 146.148 156.938 144.426C154.74 144.074 153.193 143.591 152.297 142.976C151.4 142.378 150.952 141.534 150.952 140.444C150.952 139.319 151.418 138.335 152.35 137.491C153.299 136.63 154.714 135.909 156.595 135.329C154.907 134.837 153.545 133.976 152.508 132.745C151.488 131.497 150.979 130.038 150.979 128.368C150.979 125.96 151.893 123.859 153.721 122.066C155.549 120.256 157.869 119.351 160.682 119.351C163.424 119.351 165.656 120.291 167.379 122.172C169.189 120.115 170.886 119.087 172.468 119.087C173.575 119.087 174.428 119.403 175.025 120.036C175.641 120.669 175.948 121.363 175.948 122.119C175.948 122.594 175.772 122.989 175.421 123.306C175.069 123.622 174.647 123.78 174.155 123.78C173.259 123.78 172.547 123.253 172.02 122.198C171.703 121.565 171.325 121.249 170.886 121.249C170.165 121.249 169.225 121.864 168.064 123.095ZM155.171 127.524C155.171 130.126 155.733 131.98 156.858 133.088C158.001 134.178 159.205 134.723 160.471 134.723C161.648 134.723 162.703 134.16 163.635 133.035C164.584 131.91 165.059 130.188 165.059 127.867C165.059 125.477 164.593 123.631 163.661 122.33C162.729 121.012 161.587 120.353 160.233 120.353C158.739 120.353 157.518 120.985 156.568 122.251C155.637 123.517 155.171 125.274 155.171 127.524ZM162.185 144.505C160.356 144.505 158.66 144.804 157.096 145.401C155.531 145.999 154.371 146.711 153.615 147.537C152.877 148.381 152.508 149.383 152.508 150.543C152.508 152.09 153.255 153.268 154.749 154.076C156.243 154.902 158.115 155.315 160.365 155.315C163.775 155.315 166.307 154.621 167.959 153.232C169.611 151.861 170.438 150.358 170.438 148.724C170.438 147.317 169.752 146.263 168.381 145.56C167.01 144.856 164.944 144.505 162.185 144.505ZM184.781 119.43C185.203 120.467 185.458 122.216 185.546 124.677C186.636 122.954 187.84 121.662 189.158 120.801C190.494 119.939 191.944 119.509 193.509 119.509C194.704 119.509 195.855 119.737 196.963 120.194C198.088 120.634 198.949 121.407 199.547 122.515C200.162 123.604 200.47 125.468 200.47 128.104L200.312 136.99C200.312 138.625 200.443 139.653 200.707 140.075C200.988 140.479 201.577 140.805 202.474 141.051C203.089 141.227 203.396 141.42 203.396 141.631C203.396 141.895 203.247 142.026 202.948 142.026C202.825 142.026 202.702 142.018 202.579 142C201.771 141.824 200.575 141.736 198.993 141.736C197.569 141.736 196.04 141.798 194.405 141.921C193.755 141.921 193.43 141.771 193.43 141.473C193.43 141.262 193.605 141.121 193.957 141.051C194.924 140.84 195.557 140.62 195.855 140.392C196.154 140.163 196.365 139.864 196.488 139.495C196.611 139.108 196.708 137.834 196.778 135.672C196.866 133.51 196.91 131.752 196.91 130.398C196.91 126.689 196.444 124.22 195.513 122.989C194.581 121.759 193.421 121.144 192.032 121.144C189.976 121.144 188.262 122.26 186.891 124.492C185.537 126.707 184.86 130.407 184.86 135.593C184.86 137.948 185.01 139.451 185.309 140.102C185.625 140.734 186.398 141.121 187.629 141.262C188.016 141.297 188.209 141.464 188.209 141.763C188.209 142.009 188.016 142.132 187.629 142.132L186.258 142.026C185.766 141.991 184.14 141.974 181.38 141.974L179.271 142.026C178.497 142.026 178.11 141.886 178.11 141.604C178.11 141.306 178.532 141.077 179.376 140.919C180.185 140.761 180.729 140.488 181.011 140.102C181.292 139.697 181.477 138.379 181.564 136.146C181.67 133.914 181.723 131.128 181.723 127.788C181.723 124.677 181.512 122.743 181.09 121.987C180.668 121.231 180.079 120.766 179.323 120.59C178.638 120.432 178.295 120.212 178.295 119.931C178.295 119.632 178.559 119.482 179.086 119.482L181.222 119.509C181.45 119.509 182.637 119.482 184.781 119.43ZM211.307 129.687C211.236 130.583 211.201 131.295 211.201 131.822C211.201 134.318 211.931 136.428 213.39 138.15C214.866 139.873 216.686 140.734 218.848 140.734C220.957 140.734 222.917 139.891 224.728 138.203C225.255 137.729 225.589 137.491 225.729 137.491C226.011 137.491 226.16 137.72 226.178 138.177C225.51 139.407 224.367 140.444 222.75 141.288C221.133 142.132 219.331 142.554 217.345 142.554C214.427 142.554 211.957 141.508 209.936 139.416C207.914 137.307 206.903 134.644 206.903 131.427C206.903 127.981 208.011 125.107 210.226 122.805C212.458 120.502 214.84 119.351 217.371 119.351C219.744 119.351 221.889 120.256 223.805 122.066C225.721 123.859 226.679 125.969 226.679 128.395C226.679 128.764 226.617 129.036 226.494 129.212C226.389 129.388 225.721 129.476 224.49 129.476L211.307 129.687ZM211.307 128.315C213.592 128.421 215.807 128.474 217.951 128.474L219.349 128.395C220.403 128.359 221.212 128.157 221.774 127.788C222.337 127.401 222.618 126.733 222.618 125.784C222.618 124.308 222.108 123.024 221.089 121.935C220.087 120.827 218.9 120.273 217.529 120.273C216.264 120.273 214.998 120.906 213.732 122.172C212.484 123.42 211.676 125.468 211.307 128.315ZM237.384 125.336C238.491 123.367 239.669 121.891 240.917 120.906C242.183 119.922 243.51 119.43 244.898 119.43C245.865 119.43 246.7 119.781 247.403 120.484C248.106 121.17 248.458 121.952 248.458 122.831C248.458 124.501 247.746 125.336 246.322 125.336C245.654 125.336 245.092 124.87 244.635 123.938C244.072 122.761 243.325 122.172 242.394 122.172C241.515 122.172 240.609 122.664 239.678 123.648C238.746 124.633 238.122 125.714 237.806 126.892C237.489 128.052 237.331 130.495 237.331 134.222C237.331 137.632 237.472 139.592 237.753 140.102C238.034 140.594 238.755 140.91 239.915 141.051C240.231 141.086 240.39 141.209 240.39 141.42C240.39 141.789 239.977 141.974 239.15 141.974H230.739C230.142 141.974 229.843 141.824 229.843 141.525C229.843 141.244 230.238 141.086 231.029 141.051C232.137 140.98 232.822 140.638 233.086 140.022C233.35 139.407 233.481 137.14 233.481 133.22C233.481 127.472 233.358 124.018 233.112 122.857C232.884 121.697 232.005 121.082 230.476 121.012C229.843 120.977 229.526 120.81 229.526 120.511C229.526 120.353 229.588 120.238 229.711 120.168C229.852 120.08 230.66 119.992 232.137 119.904L236.988 119.641C237.111 120.59 237.243 122.488 237.384 125.336ZM112.192 202.132C111.331 202.167 110.839 202.185 110.716 202.185C110.065 202.185 108.888 202.149 107.183 202.079C105.478 202.026 101.936 202 96.5566 202H89.8594C89.6133 202 88.7168 202.035 87.1699 202.105C85.623 202.193 84.6826 202.237 84.3486 202.237C83.0127 202.237 82.3447 202.062 82.3447 201.71C82.3447 201.429 82.6084 201.279 83.1357 201.262C84.8408 201.156 86.0273 200.796 86.6953 200.181C87.3633 199.548 87.8203 198.651 88.0664 197.491C88.3125 196.313 88.4355 193.149 88.4355 187.999L88.4619 178.56C88.4619 175.501 88.3213 173.365 88.04 172.152C87.7764 170.939 87.2139 170.017 86.3525 169.384C85.5088 168.733 84.5508 168.364 83.4785 168.276C82.916 168.224 82.6348 168.039 82.6348 167.723C82.6348 167.406 82.8896 167.248 83.3994 167.248C83.5225 167.248 83.751 167.257 84.085 167.274C86.8799 167.433 90.1494 167.512 93.8936 167.512L98.5342 167.433C99.0088 167.433 99.2461 167.608 99.2461 167.96C99.2461 168.276 98.9912 168.435 98.4814 168.435C97.2334 168.435 96.1875 168.681 95.3438 169.173C94.5176 169.665 93.9639 170.236 93.6826 170.887C93.4189 171.52 93.2871 172.768 93.2871 174.631L93.0762 187.103L93.1289 194.063C93.1289 196.226 93.2168 197.632 93.3926 198.282C93.5859 198.933 93.9727 199.521 94.5527 200.049C95.1328 200.559 96.1875 200.813 97.7168 200.813C97.8398 200.813 99.4131 200.761 102.437 200.655C104.845 200.321 107.007 199.144 108.923 197.122C110.839 195.101 112.113 193.29 112.746 191.69C112.939 191.233 113.177 191.005 113.458 191.005C113.757 191.005 113.906 191.216 113.906 191.638C113.906 192.13 113.651 193.896 113.142 196.938C112.632 199.961 112.315 201.692 112.192 202.132ZM116.253 190.979C116.253 187.885 117.369 185.16 119.602 182.805C121.834 180.449 124.576 179.271 127.828 179.271C130.887 179.271 133.515 180.326 135.712 182.436C137.927 184.545 139.034 187.182 139.034 190.346C139.034 193.545 137.874 196.357 135.554 198.783C133.233 201.191 130.526 202.396 127.433 202.396C124.374 202.396 121.746 201.288 119.549 199.073C117.352 196.841 116.253 194.143 116.253 190.979ZM120.524 190.82C120.524 193.844 121.219 196.357 122.607 198.361C124.014 200.365 125.745 201.367 127.802 201.367C129.683 201.367 131.335 200.427 132.759 198.546C134.2 196.665 134.921 194.169 134.921 191.058C134.921 188.28 134.227 185.811 132.838 183.648C131.467 181.469 129.683 180.379 127.485 180.379C125.446 180.379 123.776 181.372 122.476 183.358C121.175 185.327 120.524 187.814 120.524 190.82ZM142.726 190.979C142.726 187.885 143.842 185.16 146.074 182.805C148.307 180.449 151.049 179.271 154.301 179.271C157.359 179.271 159.987 180.326 162.185 182.436C164.399 184.545 165.507 187.182 165.507 190.346C165.507 193.545 164.347 196.357 162.026 198.783C159.706 201.191 156.999 202.396 153.905 202.396C150.847 202.396 148.219 201.288 146.021 199.073C143.824 196.841 142.726 194.143 142.726 190.979ZM146.997 190.82C146.997 193.844 147.691 196.357 149.08 198.361C150.486 200.365 152.218 201.367 154.274 201.367C156.155 201.367 157.808 200.427 159.231 198.546C160.673 196.665 161.394 194.169 161.394 191.058C161.394 188.28 160.699 185.811 159.311 183.648C157.939 181.469 156.155 180.379 153.958 180.379C151.919 180.379 150.249 181.372 148.948 183.358C147.647 185.327 146.997 187.814 146.997 190.82ZM176.186 166.088C176.238 166.756 176.265 167.23 176.265 167.512L176.186 170.333L176.317 180.458L176.344 190.926C179.297 188.887 181.494 187.085 182.936 185.521C184.377 183.938 185.098 182.813 185.098 182.146C185.098 181.46 184.447 181.056 183.146 180.933C182.461 180.862 182.118 180.687 182.118 180.405C182.118 180.194 182.206 180.062 182.382 180.01C182.575 179.957 183.357 179.931 184.729 179.931L188.763 179.957C189.606 179.957 190.371 179.939 191.057 179.904C191.76 179.904 192.111 180.062 192.111 180.379C192.111 180.625 191.909 180.783 191.505 180.854C190.274 181.064 189.22 181.416 188.341 181.908C187.479 182.4 186.398 183.341 185.098 184.729C183.885 186.013 183.103 186.821 182.751 187.155C185.282 188.368 187.198 191.752 188.499 197.307C188.815 198.66 189.272 199.601 189.87 200.128C190.468 200.655 191.575 200.945 193.192 200.998C193.72 201.033 193.983 201.2 193.983 201.499C193.983 201.833 193.544 202 192.665 202H186.284C185.634 201.438 185.203 200.866 184.992 200.286C184.799 199.706 184.614 198.81 184.438 197.597C183.823 193.378 182.136 190.829 179.376 189.95C179.288 190.038 178.277 190.776 176.344 192.165C176.326 192.71 176.317 193.202 176.317 193.642C176.317 196.981 176.52 199.047 176.924 199.838C177.346 200.611 178.066 201.024 179.086 201.077C179.631 201.095 179.903 201.262 179.903 201.578C179.903 201.859 179.341 202 178.216 202H170.569C169.638 202 169.172 201.851 169.172 201.552C169.172 201.271 169.383 201.095 169.805 201.024C170.701 200.884 171.264 200.726 171.492 200.55C171.738 200.374 171.993 200.014 172.257 199.469C172.538 198.924 172.679 197.896 172.679 196.384L172.652 192.297L172.362 173.708C172.362 171.616 172.151 170.157 171.729 169.331C171.325 168.487 170.508 167.969 169.277 167.775C168.838 167.705 168.618 167.547 168.618 167.301C168.618 167.002 169.348 166.809 170.807 166.721C171.475 166.668 172.187 166.589 172.942 166.483C174.401 166.255 175.482 166.123 176.186 166.088ZM213.152 195.013C213.152 197.052 212.396 198.81 210.885 200.286C209.373 201.745 207.58 202.475 205.506 202.475C204.275 202.475 202.808 202.079 201.103 201.288C200.171 200.866 199.617 200.655 199.441 200.655C199.143 200.655 198.879 200.84 198.65 201.209C198.369 201.701 198.105 201.947 197.859 201.947C197.648 201.947 197.517 201.701 197.464 201.209C197.411 200.699 197.376 199.557 197.358 197.781C197.341 196.252 197.314 195.268 197.279 194.828C197.279 194.178 197.446 193.853 197.78 193.853C197.974 193.853 198.123 194.02 198.229 194.354C198.914 196.357 199.872 198.062 201.103 199.469C202.351 200.857 203.81 201.552 205.479 201.552C206.657 201.552 207.703 201.191 208.617 200.471C209.531 199.732 209.988 198.739 209.988 197.491C209.988 195.558 208.31 193.844 204.952 192.35C202.649 191.312 201.111 190.557 200.338 190.082C199.564 189.607 198.958 188.966 198.519 188.157C198.079 187.349 197.859 186.47 197.859 185.521C197.859 183.71 198.545 182.198 199.916 180.985C201.287 179.755 202.948 179.14 204.899 179.14C206.341 179.14 207.923 179.588 209.646 180.484C209.927 180.625 210.173 180.695 210.384 180.695C210.56 180.695 210.753 180.555 210.964 180.273C211.175 180.01 211.342 179.878 211.465 179.878C211.623 179.878 211.746 179.948 211.834 180.089C211.922 180.212 212.019 180.985 212.124 182.409C212.229 183.815 212.282 184.976 212.282 185.89C212.282 186.452 212.133 186.733 211.834 186.733C211.57 186.733 211.359 186.479 211.201 185.969C211.061 185.494 210.639 184.589 209.936 183.253C209.232 181.917 208.459 181.064 207.615 180.695C206.789 180.326 205.972 180.142 205.163 180.142C203.897 180.142 202.86 180.449 202.052 181.064C201.243 181.68 200.839 182.479 200.839 183.464C200.839 184.079 201.006 184.633 201.34 185.125C201.674 185.617 201.981 185.986 202.263 186.232C202.562 186.479 204.24 187.287 207.299 188.658C209.197 189.52 210.445 190.188 211.043 190.662C211.641 191.119 212.142 191.743 212.546 192.534C212.95 193.325 213.152 194.151 213.152 195.013Z" fill="white"/>
<rect x="20.75" y="20.75" width="254.5" height="256.5" stroke="white" stroke-width="1.5"/>
<rect x="0.75" y="0.75" width="294.5" height="296.5" stroke="white" stroke-width="1.5"/>
</svg>
