<svg width="27" height="29" viewBox="0 0 27 29" fill="none" xmlns="http://www.w3.org/2000/svg">
<path d="M13.5 17.4C20.952 17.4 27 20.4353 27 24.1667V29H0V24.1667C0 20.4353 6.048 17.4 13.5 17.4ZM25.2 24.1667C25.2 21.4987 19.962 19.3333 13.5 19.3333C7.038 19.3333 1.8 21.4987 1.8 24.1667V27.0667H25.2V24.1667ZM13.5 0C15.1709 0 16.7733 0.712915 17.9548 1.98191C19.1363 3.25091 19.8 4.97203 19.8 6.76667C19.8 8.5613 19.1363 10.2824 17.9548 11.5514C16.7733 12.8204 15.1709 13.5333 13.5 13.5333C11.8291 13.5333 10.2267 12.8204 9.04523 11.5514C7.86375 10.2824 7.2 8.5613 7.2 6.76667C7.2 4.97203 7.86375 3.25091 9.04523 1.98191C10.2267 0.712915 11.8291 0 13.5 0ZM13.5 1.93333C12.3065 1.93333 11.1619 2.44256 10.318 3.34898C9.47411 4.25541 9 5.48479 9 6.76667C9 8.04855 9.47411 9.27792 10.318 10.1843C11.1619 11.0908 12.3065 11.6 13.5 11.6C14.6935 11.6 15.8381 11.0908 16.682 10.1843C17.5259 9.27792 18 8.04855 18 6.76667C18 5.48479 17.5259 4.25541 16.682 3.34898C15.8381 2.44256 14.6935 1.93333 13.5 1.93333Z" fill="white"/>
</svg>
