<svg width="419" height="32" viewBox="0 0 419 32" fill="none" xmlns="http://www.w3.org/2000/svg">
<rect y="4" width="28" height="28" fill="#EDE4E0"/>
<path d="M15.4922 26H13.5703V11.4805C13.4219 11.6289 13.2031 11.8008 12.9141 11.9961C12.6328 12.1836 12.3125 12.3711 11.9531 12.5586C11.6016 12.7461 11.2266 12.9219 10.8281 13.0859C10.4375 13.25 10.0547 13.3789 9.67969 13.4727V11.5273C10.1016 11.4102 10.5469 11.2539 11.0156 11.0586C11.4922 10.8555 11.957 10.6328 12.4102 10.3906C12.8711 10.1406 13.3047 9.88281 13.7109 9.61719C14.1172 9.34375 14.4688 9.07812 14.7656 8.82031H15.4922V26ZM55.3359 13.6016C55.3359 13.0859 55.2539 12.6367 55.0898 12.2539C54.9336 11.8711 54.7148 11.5547 54.4336 11.3047C54.1602 11.0469 53.8359 10.8555 53.4609 10.7305C53.0859 10.6055 52.6797 10.543 52.2422 10.543C51.8672 10.543 51.5 10.5938 51.1406 10.6953C50.7812 10.7969 50.4297 10.9375 50.0859 11.1172C49.75 11.2969 49.4219 11.5117 49.1016 11.7617C48.7891 12.0117 48.4961 12.2891 48.2227 12.5938V10.5312C48.7617 10.0078 49.3633 9.60938 50.0273 9.33594C50.6992 9.05469 51.5156 8.91406 52.4766 8.91406C53.1641 8.91406 53.8008 9.01562 54.3867 9.21875C54.9727 9.41406 55.4805 9.70312 55.9102 10.0859C56.3398 10.4688 56.6758 10.9414 56.918 11.5039C57.168 12.0664 57.293 12.7109 57.293 13.4375C57.293 14.1016 57.2148 14.7031 57.0586 15.2422C56.9102 15.7812 56.6797 16.2891 56.3672 16.7656C56.0625 17.2422 55.6758 17.6992 55.207 18.1367C54.7383 18.5742 54.1875 19.0195 53.5547 19.4727C52.7656 20.0352 52.1133 20.5156 51.5977 20.9141C51.0898 21.3125 50.6836 21.6875 50.3789 22.0391C50.082 22.3828 49.8711 22.7305 49.7461 23.082C49.6289 23.4258 49.5703 23.8242 49.5703 24.2773H57.9375V26H47.5664V25.168C47.5664 24.4492 47.6445 23.8164 47.8008 23.2695C47.957 22.7227 48.2148 22.2031 48.5742 21.7109C48.9336 21.2188 49.4023 20.7266 49.9805 20.2344C50.5664 19.7422 51.2812 19.1875 52.125 18.5703C52.7344 18.1328 53.2422 17.7148 53.6484 17.3164C54.0625 16.918 54.3945 16.5195 54.6445 16.1211C54.8945 15.7227 55.0703 15.3203 55.1719 14.9141C55.2812 14.5 55.3359 14.0625 55.3359 13.6016ZM96.7383 21.2422C96.7383 22 96.5938 22.6914 96.3047 23.3164C96.0234 23.9336 95.6211 24.4648 95.0977 24.9102C94.582 25.3477 93.9609 25.6875 93.2344 25.9297C92.5078 26.1719 91.707 26.293 90.832 26.293C89.2305 26.293 87.957 25.9883 87.0117 25.3789V23.3164C88.1445 24.207 89.4414 24.6523 90.9023 24.6523C91.4883 24.6523 92.0156 24.5781 92.4844 24.4297C92.9609 24.2812 93.3672 24.0664 93.7031 23.7852C94.0469 23.5039 94.3086 23.1641 94.4883 22.7656C94.6758 22.3672 94.7695 21.918 94.7695 21.418C94.7695 19.2227 93.207 18.125 90.082 18.125H88.6875V16.4961H90.0117C92.7773 16.4961 94.1602 15.4648 94.1602 13.4023C94.1602 11.4961 93.1055 10.543 90.9961 10.543C89.8086 10.543 88.6953 10.9414 87.6562 11.7383V9.875C88.7266 9.23438 90 8.91406 91.4766 8.91406C92.1797 8.91406 92.8164 9.01172 93.3867 9.20703C93.957 9.40234 94.4453 9.67578 94.8516 10.0273C95.2578 10.3789 95.5703 10.8008 95.7891 11.293C96.0156 11.7852 96.1289 12.3281 96.1289 12.9219C96.1289 15.1328 95.0117 16.5547 92.7773 17.1875V17.2344C93.3477 17.2969 93.875 17.4375 94.3594 17.6562C94.8438 17.8672 95.2617 18.1445 95.6133 18.4883C95.9648 18.832 96.2383 19.2383 96.4336 19.707C96.6367 20.168 96.7383 20.6797 96.7383 21.2422ZM134.812 9.19531V20.293H136.969V22.0508H134.812V26H132.914V22.0508H125.016V20.3867C125.75 19.5586 126.492 18.6758 127.242 17.7383C127.992 16.793 128.707 15.8359 129.387 14.8672C130.074 13.8984 130.707 12.9336 131.285 11.9727C131.871 11.0039 132.363 10.0781 132.762 9.19531H134.812ZM127.184 20.293H132.914V12.0664C132.328 13.0898 131.773 14.0039 131.25 14.8086C130.727 15.6133 130.227 16.3438 129.75 17C129.281 17.6562 128.832 18.25 128.402 18.7812C127.973 19.3125 127.566 19.8164 127.184 20.293ZM168.902 20.8672C168.902 21.6875 168.762 22.4297 168.48 23.0938C168.199 23.7578 167.797 24.3281 167.273 24.8047C166.758 25.2812 166.133 25.6484 165.398 25.9062C164.664 26.1641 163.848 26.293 162.949 26.293C161.387 26.293 160.227 26.0586 159.469 25.5898V23.5508C160.609 24.2852 161.777 24.6523 162.973 24.6523C163.582 24.6523 164.129 24.5625 164.613 24.3828C165.105 24.2031 165.523 23.9531 165.867 23.6328C166.211 23.3125 166.473 22.9258 166.652 22.4727C166.84 22.0195 166.934 21.5234 166.934 20.9844C166.934 19.8906 166.566 19.0352 165.832 18.418C165.098 17.793 164.031 17.4805 162.633 17.4805C162.406 17.4805 162.168 17.4844 161.918 17.4922C161.668 17.5 161.418 17.5117 161.168 17.5273C160.918 17.5352 160.672 17.5469 160.43 17.5625C160.195 17.5781 159.98 17.5977 159.785 17.6211L160.359 9.19531H168.129V10.9297H162.023L161.684 15.8633C161.934 15.8477 162.199 15.8359 162.48 15.8281C162.762 15.8125 163.012 15.8047 163.23 15.8047C164.121 15.8047 164.918 15.9219 165.621 16.1562C166.324 16.3906 166.918 16.7266 167.402 17.1641C167.895 17.5938 168.266 18.125 168.516 18.7578C168.773 19.3828 168.902 20.0859 168.902 20.8672ZM202.219 20.668C202.219 21.4883 202.086 22.2422 201.82 22.9297C201.555 23.6172 201.188 24.2109 200.719 24.7109C200.25 25.2109 199.691 25.6016 199.043 25.8828C198.395 26.1562 197.691 26.293 196.934 26.293C196.09 26.293 195.332 26.1172 194.66 25.7656C193.996 25.4141 193.43 24.9102 192.961 24.2539C192.5 23.5898 192.148 22.7812 191.906 21.8281C191.664 20.875 191.543 19.8008 191.543 18.6055C191.543 17.1445 191.703 15.8203 192.023 14.6328C192.352 13.4375 192.812 12.418 193.406 11.5742C194.008 10.7227 194.73 10.0664 195.574 9.60547C196.418 9.14453 197.359 8.91406 198.398 8.91406C199.555 8.91406 200.484 9.07422 201.188 9.39453V11.2109C200.32 10.7656 199.406 10.543 198.445 10.543C197.695 10.543 197.02 10.7109 196.418 11.0469C195.816 11.3828 195.301 11.8594 194.871 12.4766C194.441 13.0859 194.109 13.8242 193.875 14.6914C193.648 15.5586 193.535 16.5234 193.535 17.5859H193.582C194.355 16.1875 195.633 15.4883 197.414 15.4883C198.148 15.4883 198.809 15.6133 199.395 15.8633C199.988 16.1133 200.492 16.4688 200.906 16.9297C201.328 17.3828 201.652 17.9258 201.879 18.5586C202.105 19.1914 202.219 19.8945 202.219 20.668ZM200.25 20.9141C200.25 20.3281 200.176 19.8008 200.027 19.332C199.879 18.8633 199.664 18.4648 199.383 18.1367C199.109 17.8086 198.77 17.5586 198.363 17.3867C197.957 17.207 197.496 17.1172 196.98 17.1172C196.504 17.1172 196.062 17.207 195.656 17.3867C195.25 17.5664 194.898 17.8125 194.602 18.125C194.305 18.4297 194.07 18.7891 193.898 19.2031C193.734 19.6094 193.652 20.043 193.652 20.5039C193.652 21.082 193.734 21.625 193.898 22.1328C194.062 22.6328 194.293 23.0703 194.59 23.4453C194.887 23.8203 195.238 24.1172 195.645 24.3359C196.059 24.5469 196.516 24.6523 197.016 24.6523C197.5 24.6523 197.941 24.5625 198.34 24.3828C198.738 24.1953 199.078 23.9375 199.359 23.6094C199.641 23.2812 199.859 22.8906 200.016 22.4375C200.172 21.9766 200.25 21.4688 200.25 20.9141ZM234.773 10.3086C234.516 10.7539 234.203 11.3086 233.836 11.9727C233.477 12.6367 233.094 13.3828 232.688 14.2109C232.281 15.0391 231.867 15.9297 231.445 16.8828C231.023 17.8359 230.629 18.8203 230.262 19.8359C229.895 20.8516 229.57 21.8828 229.289 22.9297C229.016 23.9688 228.816 24.9922 228.691 26H226.629C226.77 25 226.984 23.9805 227.273 22.9414C227.57 21.8945 227.902 20.8711 228.27 19.8711C228.645 18.8633 229.039 17.8945 229.453 16.9648C229.867 16.0352 230.27 15.1797 230.66 14.3984C231.051 13.6172 231.406 12.9297 231.727 12.3359C232.055 11.7344 232.316 11.2656 232.512 10.9297H224.086V9.19531H234.773V10.3086ZM256.688 21.3125C256.688 20.8672 256.758 20.4219 256.898 19.9766C257.039 19.5234 257.238 19.1016 257.496 18.7109C257.762 18.3203 258.086 17.9648 258.469 17.6445C258.859 17.3242 259.301 17.0703 259.793 16.8828C259.066 16.4766 258.488 15.957 258.059 15.3242C257.629 14.6836 257.414 13.9766 257.414 13.2031C257.414 12.5859 257.531 12.0156 257.766 11.4922C258.008 10.9688 258.34 10.5156 258.762 10.1328C259.184 9.75 259.684 9.45312 260.262 9.24219C260.84 9.02344 261.465 8.91406 262.137 8.91406C262.816 8.91406 263.445 9.02344 264.023 9.24219C264.602 9.46094 265.102 9.76172 265.523 10.1445C265.945 10.5273 266.273 10.9805 266.508 11.5039C266.742 12.0273 266.859 12.5938 266.859 13.2031C266.859 13.9766 266.645 14.6836 266.215 15.3242C265.785 15.957 265.215 16.4766 264.504 16.8828C264.988 17.0703 265.422 17.3242 265.805 17.6445C266.188 17.9648 266.508 18.3203 266.766 18.7109C267.031 19.1016 267.234 19.5234 267.375 19.9766C267.516 20.4219 267.586 20.8672 267.586 21.3125C267.586 22.0469 267.453 22.7188 267.188 23.3281C266.922 23.9375 266.547 24.4609 266.062 24.8984C265.586 25.3281 265.012 25.6641 264.34 25.9062C263.676 26.1484 262.941 26.2695 262.137 26.2695C261.34 26.2695 260.609 26.1484 259.945 25.9062C259.281 25.6641 258.707 25.3281 258.223 24.8984C257.738 24.4609 257.359 23.9375 257.086 23.3281C256.82 22.7188 256.688 22.0469 256.688 21.3125ZM258.773 21.1484C258.773 21.6719 258.852 22.1445 259.008 22.5664C259.172 22.9883 259.398 23.3477 259.688 23.6445C259.984 23.9414 260.34 24.1719 260.754 24.3359C261.176 24.4922 261.641 24.5703 262.148 24.5703C262.641 24.5703 263.094 24.4883 263.508 24.3242C263.922 24.1602 264.277 23.9297 264.574 23.6328C264.879 23.3359 265.113 22.9766 265.277 22.5547C265.449 22.1328 265.535 21.6641 265.535 21.1484C265.535 20.6797 265.453 20.2422 265.289 19.8359C265.133 19.4219 264.906 19.0586 264.609 18.7461C264.312 18.4336 263.957 18.1875 263.543 18.0078C263.129 17.8281 262.664 17.7383 262.148 17.7383C261.664 17.7383 261.215 17.8242 260.801 17.9961C260.395 18.1602 260.039 18.3945 259.734 18.6992C259.438 18.9961 259.203 19.3555 259.031 19.7773C258.859 20.1914 258.773 20.6484 258.773 21.1484ZM259.371 13.3555C259.371 13.7539 259.441 14.125 259.582 14.4688C259.73 14.8047 259.93 15.1016 260.18 15.3594C260.438 15.6094 260.734 15.8086 261.07 15.957C261.406 16.0977 261.766 16.168 262.148 16.168C262.531 16.168 262.891 16.0938 263.227 15.9453C263.57 15.7969 263.867 15.5977 264.117 15.3477C264.367 15.0898 264.566 14.793 264.715 14.457C264.863 14.1133 264.938 13.7461 264.938 13.3555C264.938 12.9492 264.863 12.5742 264.715 12.2305C264.574 11.8867 264.379 11.5898 264.129 11.3398C263.879 11.0898 263.582 10.8945 263.238 10.7539C262.902 10.6055 262.539 10.5312 262.148 10.5312C261.734 10.5312 261.355 10.6055 261.012 10.7539C260.676 10.9023 260.383 11.1055 260.133 11.3633C259.891 11.6133 259.703 11.9102 259.57 12.2539C259.438 12.5977 259.371 12.9648 259.371 13.3555ZM290.941 20.0234C290.582 20.0234 290.273 19.8945 290.016 19.6367C289.766 19.3789 289.641 19.0703 289.641 18.7109C289.641 18.3438 289.766 18.0312 290.016 17.7734C290.273 17.5156 290.582 17.3867 290.941 17.3867C291.309 17.3867 291.621 17.5156 291.879 17.7734C292.137 18.0312 292.266 18.3438 292.266 18.7109C292.266 19.0703 292.137 19.3789 291.879 19.6367C291.621 19.8945 291.309 20.0234 290.941 20.0234ZM296.145 20.0234C295.785 20.0234 295.477 19.8945 295.219 19.6367C294.969 19.3789 294.844 19.0703 294.844 18.7109C294.844 18.3438 294.969 18.0312 295.219 17.7734C295.477 17.5156 295.785 17.3867 296.145 17.3867C296.512 17.3867 296.824 17.5156 297.082 17.7734C297.34 18.0312 297.469 18.3438 297.469 18.7109C297.469 19.0703 297.34 19.3789 297.082 19.6367C296.824 19.8945 296.512 20.0234 296.145 20.0234ZM301.348 20.0234C300.988 20.0234 300.68 19.8945 300.422 19.6367C300.172 19.3789 300.047 19.0703 300.047 18.7109C300.047 18.3438 300.172 18.0312 300.422 17.7734C300.68 17.5156 300.988 17.3867 301.348 17.3867C301.715 17.3867 302.027 17.5156 302.285 17.7734C302.543 18.0312 302.672 18.3438 302.672 18.7109C302.672 19.0703 302.543 19.3789 302.285 19.6367C302.027 19.8945 301.715 20.0234 301.348 20.0234ZM332.18 26H330.258V11.4805C330.109 11.6289 329.891 11.8008 329.602 11.9961C329.32 12.1836 329 12.3711 328.641 12.5586C328.289 12.7461 327.914 12.9219 327.516 13.0859C327.125 13.25 326.742 13.3789 326.367 13.4727V11.5273C326.789 11.4102 327.234 11.2539 327.703 11.0586C328.18 10.8555 328.645 10.6328 329.098 10.3906C329.559 10.1406 329.992 9.88281 330.398 9.61719C330.805 9.34375 331.156 9.07812 331.453 8.82031H332.18V26ZM348.586 17.5273C348.586 18.9336 348.457 20.1797 348.199 21.2656C347.949 22.3516 347.582 23.2695 347.098 24.0195C346.621 24.7617 346.031 25.3281 345.328 25.7188C344.633 26.1016 343.84 26.293 342.949 26.293C342.105 26.293 341.352 26.1094 340.688 25.7422C340.031 25.3672 339.477 24.8242 339.023 24.1133C338.57 23.4023 338.227 22.5312 337.992 21.5C337.758 20.4609 337.641 19.2734 337.641 17.9375C337.641 16.4688 337.762 15.1719 338.004 14.0469C338.254 12.9219 338.617 11.9805 339.094 11.2227C339.57 10.457 340.16 9.88281 340.863 9.5C341.574 9.10938 342.387 8.91406 343.301 8.91406C346.824 8.91406 348.586 11.7852 348.586 17.5273ZM346.617 17.7148C346.617 12.9336 345.48 10.543 343.207 10.543C340.809 10.543 339.609 12.9766 339.609 17.8438C339.609 22.3828 340.785 24.6523 343.137 24.6523C345.457 24.6523 346.617 22.3398 346.617 17.7148ZM385.078 26H382.664L374.016 12.6055C373.797 12.2695 373.617 11.918 373.477 11.5508H373.406C373.469 11.9102 373.5 12.6797 373.5 13.8594V26H371.531V9.19531H374.086L382.5 22.3789C382.852 22.9258 383.078 23.3008 383.18 23.5039H383.227C383.148 23.0195 383.109 22.1953 383.109 21.0312V9.19531H385.078V26ZM398.871 20.4805H390.398C390.43 21.8164 390.789 22.8477 391.477 23.5742C392.164 24.3008 393.109 24.6641 394.312 24.6641C395.664 24.6641 396.906 24.2188 398.039 23.3281V25.1328C396.984 25.8984 395.59 26.2812 393.855 26.2812C392.16 26.2812 390.828 25.7383 389.859 24.6523C388.891 23.5586 388.406 22.0234 388.406 20.0469C388.406 18.1797 388.934 16.6602 389.988 15.4883C391.051 14.3086 392.367 13.7188 393.938 13.7188C395.508 13.7188 396.723 14.2266 397.582 15.2422C398.441 16.2578 398.871 17.668 398.871 19.4727V20.4805ZM396.902 18.8516C396.895 17.7422 396.625 16.8789 396.094 16.2617C395.57 15.6445 394.84 15.3359 393.902 15.3359C392.996 15.3359 392.227 15.6602 391.594 16.3086C390.961 16.957 390.57 17.8047 390.422 18.8516H396.902ZM410.555 14L406.523 20.0703L410.484 26H408.246L405.891 22.1094C405.742 21.8672 405.566 21.5625 405.363 21.1953H405.316C405.277 21.2656 405.094 21.5703 404.766 22.1094L402.363 26H400.148L404.238 20.1172L400.324 14H402.562L404.883 18.1016C405.055 18.4062 405.223 18.7188 405.387 19.0391H405.434L408.434 14H410.555ZM418.371 25.8828C417.918 26.1328 417.32 26.2578 416.578 26.2578C414.477 26.2578 413.426 25.0859 413.426 22.7422V15.6406H411.363V14H413.426V11.0703L415.348 10.4492V14H418.371V15.6406H415.348V22.4023C415.348 23.207 415.484 23.7812 415.758 24.125C416.031 24.4688 416.484 24.6406 417.117 24.6406C417.602 24.6406 418.02 24.5078 418.371 24.2422V25.8828Z" fill="#373737"/>
<path d="M369.328 28.7773H418.992V30.1719H369.328V28.7773Z" fill="#373737"/>
</svg>
