<svg width="151" height="23" viewBox="0 0 151 23" fill="none" xmlns="http://www.w3.org/2000/svg">
<path d="M118.967 12.9473C118.967 11.8861 119.139 10.724 119.484 9.46094C119.836 8.19141 120.321 7.04232 120.939 6.01367C121.558 4.98503 121.988 4.34049 122.229 4.08008C122.476 3.81315 122.648 3.67969 122.746 3.67969C123.065 3.67969 123.225 3.74154 123.225 3.86523C123.225 3.9043 123.199 3.95638 123.146 4.02148C122.43 4.84831 121.714 6.14388 120.998 7.9082C120.282 9.67253 119.924 11.4466 119.924 13.2305C119.924 14.9492 120.253 16.6322 120.91 18.2793C121.568 19.9329 122.242 21.1178 122.932 21.834C123.062 21.9707 123.127 22.0651 123.127 22.1172C123.127 22.2474 122.928 22.3125 122.531 22.3125C122.238 22.3125 121.757 21.7526 121.086 20.6328C120.422 19.513 119.901 18.3118 119.523 17.0293C119.152 15.7533 118.967 14.3926 118.967 12.9473ZM131.877 16.9805C131.532 17.0065 131.21 17.0195 130.91 17.0195L126.633 16.9707C125.962 16.9707 125.52 16.9805 125.305 17C125.096 17 124.992 16.9382 124.992 16.8145C124.992 16.7559 125.044 16.6875 125.148 16.6094C127.492 14.8906 129.074 13.4388 129.895 12.2539C130.715 11.069 131.125 9.98177 131.125 8.99219C131.125 8.42578 130.985 7.93424 130.705 7.51758C130.432 7.10091 130.005 6.89258 129.426 6.89258C128.482 6.89258 127.701 7.30599 127.082 8.13281C126.47 8.95964 126.164 9.8125 126.164 10.6914C126.164 11.0951 126.242 11.3978 126.398 11.5996C126.555 11.8014 126.789 11.9023 127.102 11.9023C127.342 11.9023 127.622 11.8014 127.941 11.5996C128.26 11.3978 128.531 10.9909 128.752 10.3789C128.811 10.2161 128.882 10.1348 128.967 10.1348C129.097 10.1348 129.162 10.1999 129.162 10.3301C129.162 10.4473 129.068 10.6882 128.879 11.0527C128.697 11.4173 128.407 11.7428 128.01 12.0293C127.619 12.3092 127.235 12.4492 126.857 12.4492C126.395 12.4492 125.988 12.2702 125.637 11.9121C125.285 11.5475 125.109 11.1243 125.109 10.6426C125.109 9.73763 125.63 8.80664 126.672 7.84961C127.72 6.88607 128.807 6.4043 129.934 6.4043C130.689 6.4043 131.343 6.62565 131.896 7.06836C132.45 7.51107 132.727 8.1556 132.727 9.00195C132.727 9.81576 132.46 10.5872 131.926 11.3164C131.392 12.0391 130.311 13.0254 128.684 14.2754C127.818 14.946 127.235 15.4115 126.936 15.6719H129.885C130.744 15.6719 131.307 15.6198 131.574 15.5156C131.848 15.4115 132.144 15.138 132.463 14.6953C132.632 14.4609 132.753 14.3438 132.824 14.3438C132.928 14.3438 132.98 14.3958 132.98 14.5L131.877 16.9805ZM137.961 7.91797C137.661 9.42839 137.482 10.4635 137.424 11.0234C137.788 10.724 138.16 10.4993 138.537 10.3496C138.915 10.1999 139.302 10.125 139.699 10.125C140.487 10.125 141.19 10.3854 141.809 10.9062C142.427 11.4271 142.736 12.127 142.736 13.0059C142.736 14.0931 142.255 15.0632 141.291 15.916C140.334 16.7624 139.279 17.1855 138.127 17.1855C137.307 17.1855 136.61 16.987 136.037 16.5898C135.464 16.1862 135.178 15.6784 135.178 15.0664C135.178 14.7604 135.266 14.5326 135.441 14.3828C135.624 14.2331 135.829 14.1582 136.057 14.1582C136.239 14.1582 136.408 14.2233 136.564 14.3535C136.721 14.4772 136.799 14.6302 136.799 14.8125C136.799 14.9167 136.773 15.0632 136.721 15.252C136.662 15.4538 136.633 15.61 136.633 15.7207C136.633 15.9681 136.747 16.2122 136.975 16.4531C137.209 16.694 137.59 16.8145 138.117 16.8145C139.068 16.8145 139.816 16.4206 140.363 15.6328C140.91 14.8385 141.184 13.8457 141.184 12.6543C141.184 11.9382 141.047 11.401 140.773 11.043C140.507 10.6849 140.103 10.5059 139.562 10.5059C138.924 10.5059 138.371 10.7337 137.902 11.1895C137.427 11.6452 137.163 12.0977 137.111 12.5469C137.079 12.8203 137.004 12.957 136.887 12.957C136.776 12.957 136.721 12.8919 136.721 12.7617C136.721 12.7227 136.87 11.7591 137.17 9.87109L137.502 7.71289C137.587 7.13346 137.665 6.74609 137.736 6.55078C138.889 6.73958 139.585 6.83398 139.826 6.83398C140.718 6.83398 141.457 6.44987 142.043 5.68164C142.154 5.5319 142.251 5.45703 142.336 5.45703C142.434 5.45703 142.482 5.49935 142.482 5.58398C142.482 6.05273 142.157 6.57031 141.506 7.13672C140.855 7.69661 140.008 7.97656 138.967 7.97656C138.726 7.97656 138.391 7.95703 137.961 7.91797ZM149.133 13.0449C149.133 13.9043 148.99 14.9557 148.703 16.1992C148.417 17.4362 147.857 18.7643 147.023 20.1836C146.197 21.6029 145.64 22.3125 145.354 22.3125C145.035 22.3125 144.875 22.2507 144.875 22.127C144.875 22.0879 144.901 22.0358 144.953 21.9707C145.669 21.1439 146.385 19.8483 147.102 18.084C147.818 16.3197 148.176 14.5456 148.176 12.7617C148.176 10.9388 147.831 9.21354 147.141 7.58594C146.457 5.95833 145.799 4.81576 145.168 4.1582C145.038 4.02148 144.973 3.92708 144.973 3.875C144.973 3.74479 145.171 3.67969 145.568 3.67969C145.861 3.67969 146.34 4.23958 147.004 5.35938C147.674 6.47917 148.195 7.67708 148.566 8.95312C148.944 10.2292 149.133 11.5931 149.133 13.0449Z" fill="black"/>
<path d="M3.96108 19.9835L9.9 16.9993L15.8389 19.9803C15.8664 19.994 15.8973 20.0001 15.9282 19.998C15.9591 19.9959 15.9887 19.9855 16.0138 19.9682C16.0389 19.9508 16.0585 19.9271 16.0702 19.8998C16.082 19.8724 16.0855 19.8424 16.0805 19.8133L14.9477 13.4982L19.7504 9.02676C19.7724 9.00605 19.7879 8.97992 19.7952 8.95128C19.8026 8.92265 19.8014 8.89263 19.7919 8.86458C19.7824 8.83654 19.7649 8.81156 19.7414 8.79245C19.7179 8.77334 19.6893 8.76083 19.6588 8.75634L13.0186 7.83374L10.0499 2.08973C10.0363 2.06284 10.015 2.04016 9.98847 2.02429C9.96196 2.00842 9.9313 2 9.9 2C9.86871 2 9.83804 2.00842 9.81153 2.02429C9.78501 2.04016 9.76371 2.06284 9.75007 2.08973L6.78144 7.83533L0.141187 8.75793C0.110676 8.76242 0.082074 8.77493 0.0585718 8.79404C0.0350696 8.81315 0.0175918 8.83813 0.00808899 8.86617C-0.00141387 8.89422 -0.00256827 8.92424 0.00475506 8.95287C0.0120784 8.98151 0.0275911 9.00764 0.0495622 9.02835L4.85234 13.4998L3.71786 19.8149C3.71278 19.844 3.71633 19.874 3.7281 19.9014C3.73987 19.9287 3.7594 19.9524 3.78449 19.9698C3.80959 19.9871 3.83925 19.9974 3.87015 19.9996C3.90105 20.0017 3.93197 19.9956 3.95942 19.9819L3.96108 19.9835Z" fill="#9F8772"/>
<path d="M27.361 19.9835L33.2999 16.9993L39.2388 19.9803C39.2663 19.994 39.2972 20.0001 39.3281 19.998C39.359 19.9959 39.3886 19.9855 39.4137 19.9682C39.4388 19.9508 39.4584 19.9271 39.4701 19.8998C39.4819 19.8724 39.4855 19.8424 39.4804 19.8133L38.3476 13.4982L43.1503 9.02676C43.1723 9.00605 43.1878 8.97992 43.1951 8.95128C43.2025 8.92265 43.2013 8.89263 43.1918 8.86458C43.1823 8.83654 43.1648 8.81156 43.1413 8.79245C43.1178 8.77334 43.0892 8.76083 43.0587 8.75634L36.4185 7.83374L33.4498 2.08973C33.4362 2.06284 33.4149 2.04016 33.3884 2.02429C33.3619 2.00842 33.3312 2 33.2999 2C33.2686 2 33.2379 2.00842 33.2114 2.02429C33.1849 2.04016 33.1636 2.06284 33.15 2.08973L30.1813 7.83533L23.5411 8.75793C23.5106 8.76242 23.482 8.77493 23.4585 8.79404C23.435 8.81315 23.4175 8.83813 23.408 8.86617C23.3985 8.89422 23.3973 8.92424 23.4047 8.95287C23.412 8.98151 23.4275 9.00764 23.4495 9.02835L28.2522 13.4998L27.1178 19.8149C27.1127 19.844 27.1162 19.874 27.128 19.9014C27.1398 19.9287 27.1593 19.9524 27.1844 19.9698C27.2095 19.9871 27.2392 19.9974 27.2701 19.9996C27.301 20.0017 27.3319 19.9956 27.3593 19.9819L27.361 19.9835Z" fill="#9F8772"/>
<path d="M50.7609 19.9835L56.6998 16.9993L62.6387 19.9803C62.6662 19.994 62.6971 20.0001 62.728 19.998C62.7589 19.9959 62.7886 19.9855 62.8136 19.9682C62.8387 19.9508 62.8583 19.9271 62.87 19.8998C62.8818 19.8724 62.8854 19.8424 62.8803 19.8133L61.7475 13.4982L66.5502 9.02676C66.5722 9.00605 66.5877 8.97992 66.595 8.95128C66.6024 8.92265 66.6012 8.89263 66.5917 8.86458C66.5822 8.83654 66.5647 8.81156 66.5412 8.79245C66.5177 8.77334 66.4891 8.76083 66.4586 8.75634L59.8184 7.83374L56.8497 2.08973C56.8361 2.06284 56.8148 2.04016 56.7883 2.02429C56.7618 2.00842 56.7311 2 56.6998 2C56.6685 2 56.6378 2.00842 56.6113 2.02429C56.5848 2.04016 56.5635 2.06284 56.5499 2.08973L53.5812 7.83533L46.941 8.75793C46.9105 8.76242 46.8819 8.77493 46.8584 8.79404C46.8349 8.81315 46.8174 8.83813 46.8079 8.86617C46.7984 8.89422 46.7972 8.92424 46.8046 8.95287C46.8119 8.98151 46.8274 9.00764 46.8494 9.02835L51.6521 13.4998L50.5177 19.8149C50.5126 19.844 50.5161 19.874 50.5279 19.9014C50.5397 19.9287 50.5592 19.9524 50.5843 19.9698C50.6094 19.9871 50.6391 19.9974 50.67 19.9996C50.7009 20.0017 50.7318 19.9956 50.7592 19.9819L50.7609 19.9835Z" fill="#9F8772"/>
<path d="M74.1613 19.9835L80.1002 16.9993L86.0391 19.9803C86.0666 19.994 86.0975 20.0001 86.1284 19.998C86.1593 19.9959 86.1889 19.9855 86.214 19.9682C86.2391 19.9508 86.2587 19.9271 86.2704 19.8998C86.2822 19.8724 86.2857 19.8424 86.2807 19.8133L85.1479 13.4982L89.9506 9.02676C89.9726 9.00605 89.9881 8.97992 89.9954 8.95128C90.0028 8.92265 90.0016 8.89263 89.9921 8.86458C89.9826 8.83654 89.9651 8.81156 89.9416 8.79245C89.9181 8.77334 89.8895 8.76083 89.859 8.75634L83.2188 7.83374L80.2501 2.08973C80.2365 2.06284 80.2152 2.04016 80.1887 2.02429C80.1622 2.00842 80.1315 2 80.1002 2C80.0689 2 80.0382 2.00842 80.0117 2.02429C79.9852 2.04016 79.9639 2.06284 79.9503 2.08973L76.9816 7.83533L70.3414 8.75793C70.3109 8.76242 70.2823 8.77493 70.2588 8.79404C70.2353 8.81315 70.2178 8.83813 70.2083 8.86617C70.1988 8.89422 70.1976 8.92424 70.205 8.95287C70.2123 8.98151 70.2278 9.00764 70.2498 9.02835L75.0525 13.4998L73.9181 19.8149C73.913 19.844 73.9165 19.874 73.9283 19.9014C73.9401 19.9287 73.9596 19.9524 73.9847 19.9698C74.0098 19.9871 74.0394 19.9974 74.0703 19.9996C74.1012 20.0017 74.1322 19.9956 74.1596 19.9819L74.1613 19.9835Z" fill="#9F8772"/>
<path d="M97.5612 19.9835L103.5 16.9993L109.439 19.9803C109.466 19.994 109.497 20.0001 109.528 19.998C109.559 19.9959 109.589 19.9855 109.614 19.9682C109.639 19.9508 109.659 19.9271 109.67 19.8998C109.682 19.8724 109.686 19.8424 109.681 19.8133L108.548 13.4982L113.351 9.02676C113.373 9.00605 113.388 8.97992 113.395 8.95128C113.403 8.92265 113.402 8.89263 113.392 8.86458C113.383 8.83654 113.365 8.81156 113.342 8.79245C113.318 8.77334 113.289 8.76083 113.259 8.75634L106.619 7.83374L103.65 2.08973C103.636 2.06284 103.615 2.04016 103.589 2.02429C103.562 2.00842 103.531 2 103.5 2C103.469 2 103.438 2.00842 103.412 2.02429C103.385 2.04016 103.364 2.06284 103.35 2.08973L100.382 7.83533L93.7413 8.75793C93.7108 8.76242 93.6822 8.77493 93.6587 8.79404C93.6352 8.81315 93.6177 8.83813 93.6082 8.86617C93.5987 8.89422 93.5975 8.92424 93.6049 8.95287C93.6122 8.98151 93.6277 9.00764 93.6497 9.02835L98.4524 13.4998L97.318 19.8149C97.3129 19.844 97.3164 19.874 97.3282 19.9014C97.34 19.9287 97.3595 19.9524 97.3846 19.9698C97.4097 19.9871 97.4393 19.9974 97.4702 19.9996C97.5011 20.0017 97.5321 19.9956 97.5595 19.9819L97.5612 19.9835Z" fill="#9F8772"/>
</svg>
