<svg width="152" height="23" viewBox="0 0 152 23" fill="none" xmlns="http://www.w3.org/2000/svg">
<path d="M119.967 12.9473C119.967 11.8861 120.139 10.724 120.484 9.46094C120.836 8.19141 121.321 7.04232 121.939 6.01367C122.558 4.98503 122.988 4.34049 123.229 4.08008C123.476 3.81315 123.648 3.67969 123.746 3.67969C124.065 3.67969 124.225 3.74154 124.225 3.86523C124.225 3.9043 124.199 3.95638 124.146 4.02148C123.43 4.84831 122.714 6.14388 121.998 7.9082C121.282 9.67253 120.924 11.4466 120.924 13.2305C120.924 14.9492 121.253 16.6322 121.91 18.2793C122.568 19.9329 123.242 21.1178 123.932 21.834C124.062 21.9707 124.127 22.0651 124.127 22.1172C124.127 22.2474 123.928 22.3125 123.531 22.3125C123.238 22.3125 122.757 21.7526 122.086 20.6328C121.422 19.513 120.901 18.3118 120.523 17.0293C120.152 15.7533 119.967 14.3926 119.967 12.9473ZM131.217 7.89844C131.178 10.2357 131.158 11.7233 131.158 12.3613C131.158 14.5163 131.204 15.7533 131.295 16.0723C131.386 16.3848 131.721 16.5671 132.301 16.6191C132.561 16.6452 132.691 16.7005 132.691 16.7852C132.691 16.9414 132.59 17.0195 132.389 17.0195C132.337 17.0195 132.278 17.0163 132.213 17.0098C131.992 16.9902 131.627 16.9805 131.119 16.9805C130.064 16.9805 129.247 16.9935 128.668 17.0195C128.544 17.026 128.447 17.0293 128.375 17.0293C128.167 17.0293 128.062 16.9707 128.062 16.8535C128.062 16.7298 128.173 16.6615 128.395 16.6484C129.072 16.6029 129.485 16.4466 129.635 16.1797C129.785 15.9062 129.859 15.2975 129.859 14.3535C129.859 11.7624 129.846 10.1022 129.82 9.37305C129.794 8.64388 129.68 8.15885 129.479 7.91797C129.277 7.67708 128.958 7.55664 128.521 7.55664C128.242 7.55664 128.066 7.54036 127.994 7.50781C127.923 7.46875 127.887 7.4069 127.887 7.32227C127.887 7.22461 128.004 7.17253 128.238 7.16602C128.688 7.15951 129.169 7.08789 129.684 6.95117C130.198 6.81445 130.598 6.64518 130.885 6.44336C130.956 6.39128 131.015 6.36523 131.061 6.36523C131.165 6.36523 131.217 6.45638 131.217 6.63867V7.89844ZM140.982 11.0918C141.842 11.0918 142.519 11.3197 143.014 11.7754C143.508 12.2311 143.756 12.791 143.756 13.4551C143.756 14.36 143.307 15.2096 142.408 16.0039C141.516 16.7982 140.455 17.1953 139.225 17.1953C138.242 17.1953 137.47 16.9772 136.91 16.541C136.357 16.0983 136.08 15.6426 136.08 15.1738C136.08 14.9069 136.168 14.6725 136.344 14.4707C136.526 14.2689 136.76 14.168 137.047 14.168C137.249 14.168 137.415 14.2396 137.545 14.3828C137.675 14.5195 137.74 14.6725 137.74 14.8418C137.74 14.9329 137.698 15.0566 137.613 15.2129C137.529 15.3757 137.486 15.5319 137.486 15.6816C137.486 16.0202 137.649 16.2969 137.975 16.5117C138.3 16.7201 138.694 16.8242 139.156 16.8242C139.775 16.8242 140.296 16.6419 140.719 16.2773C141.148 15.9128 141.503 15.3594 141.783 14.6172C142.07 13.875 142.213 13.3184 142.213 12.9473C142.213 12.4655 142.079 12.0879 141.812 11.8145C141.546 11.5345 141.227 11.3945 140.855 11.3945C140.589 11.3945 140.198 11.5964 139.684 12C139.28 12.3125 139.052 12.4688 139 12.4688C138.883 12.4688 138.824 12.4069 138.824 12.2832C138.824 12.2311 139.127 11.974 139.732 11.5117C140.833 10.6719 141.487 10.0404 141.695 9.61719C141.91 9.19401 142.018 8.79688 142.018 8.42578C142.018 7.95052 141.874 7.5599 141.588 7.25391C141.301 6.94792 140.934 6.79492 140.484 6.79492C139.866 6.79492 139.312 7.04557 138.824 7.54688C138.336 8.04818 138.092 8.61458 138.092 9.24609C138.092 9.57812 138.157 9.82878 138.287 9.99805C138.417 10.1608 138.613 10.2422 138.873 10.2422C139.264 10.2422 139.618 9.94271 139.938 9.34375C139.983 9.26562 140.038 9.22656 140.104 9.22656C140.227 9.22656 140.289 9.28516 140.289 9.40234C140.289 9.54557 140.104 9.83203 139.732 10.2617C139.361 10.6849 138.928 10.8965 138.434 10.8965C137.991 10.8965 137.649 10.7598 137.408 10.4863C137.167 10.2129 137.047 9.88737 137.047 9.50977C137.047 8.73503 137.421 8.02214 138.17 7.37109C138.925 6.72005 139.843 6.39453 140.924 6.39453C141.757 6.39453 142.385 6.58333 142.809 6.96094C143.232 7.33854 143.443 7.79102 143.443 8.31836C143.443 8.70898 143.336 9.05404 143.121 9.35352C142.913 9.65299 142.672 9.90039 142.398 10.0957L140.982 11.0918ZM150.133 13.0449C150.133 13.9043 149.99 14.9557 149.703 16.1992C149.417 17.4362 148.857 18.7643 148.023 20.1836C147.197 21.6029 146.64 22.3125 146.354 22.3125C146.035 22.3125 145.875 22.2507 145.875 22.127C145.875 22.0879 145.901 22.0358 145.953 21.9707C146.669 21.1439 147.385 19.8483 148.102 18.084C148.818 16.3197 149.176 14.5456 149.176 12.7617C149.176 10.9388 148.831 9.21354 148.141 7.58594C147.457 5.95833 146.799 4.81576 146.168 4.1582C146.038 4.02148 145.973 3.92708 145.973 3.875C145.973 3.74479 146.171 3.67969 146.568 3.67969C146.861 3.67969 147.34 4.23958 148.004 5.35938C148.674 6.47917 149.195 7.67708 149.566 8.95312C149.944 10.2292 150.133 11.5931 150.133 13.0449Z" fill="black"/>
<path d="M3.96108 19.9835L9.9 16.9993L15.8389 19.9803C15.8664 19.994 15.8973 20.0001 15.9282 19.998C15.9591 19.9959 15.9887 19.9855 16.0138 19.9682C16.0389 19.9508 16.0585 19.9271 16.0702 19.8998C16.082 19.8724 16.0855 19.8424 16.0805 19.8133L14.9477 13.4982L19.7504 9.02676C19.7724 9.00605 19.7879 8.97992 19.7952 8.95128C19.8026 8.92265 19.8014 8.89263 19.7919 8.86458C19.7824 8.83654 19.7649 8.81156 19.7414 8.79245C19.7179 8.77334 19.6893 8.76083 19.6588 8.75634L13.0186 7.83374L10.0499 2.08973C10.0363 2.06284 10.015 2.04016 9.98847 2.02429C9.96196 2.00842 9.9313 2 9.9 2C9.86871 2 9.83804 2.00842 9.81153 2.02429C9.78501 2.04016 9.76371 2.06284 9.75007 2.08973L6.78144 7.83533L0.141187 8.75793C0.110676 8.76242 0.082074 8.77493 0.0585718 8.79404C0.0350696 8.81315 0.0175918 8.83813 0.00808899 8.86617C-0.00141387 8.89422 -0.00256827 8.92424 0.00475506 8.95287C0.0120784 8.98151 0.0275911 9.00764 0.0495622 9.02835L4.85234 13.4998L3.71786 19.8149C3.71279 19.844 3.71633 19.874 3.7281 19.9014C3.73987 19.9287 3.7594 19.9524 3.78449 19.9698C3.80959 19.9871 3.83925 19.9974 3.87015 19.9996C3.90105 20.0017 3.93197 19.9956 3.95942 19.9819L3.96108 19.9835Z" fill="#9F8772"/>
<path d="M27.361 19.9835L33.2999 16.9993L39.2388 19.9803C39.2663 19.994 39.2972 20.0001 39.3281 19.998C39.359 19.9959 39.3886 19.9855 39.4137 19.9682C39.4388 19.9508 39.4584 19.9271 39.4701 19.8998C39.4819 19.8724 39.4855 19.8424 39.4804 19.8133L38.3476 13.4982L43.1503 9.02676C43.1723 9.00605 43.1878 8.97992 43.1951 8.95128C43.2025 8.92265 43.2013 8.89263 43.1918 8.86458C43.1823 8.83654 43.1648 8.81156 43.1413 8.79245C43.1178 8.77334 43.0892 8.76083 43.0587 8.75634L36.4185 7.83374L33.4498 2.08973C33.4362 2.06284 33.4149 2.04016 33.3884 2.02429C33.3619 2.00842 33.3312 2 33.2999 2C33.2686 2 33.2379 2.00842 33.2114 2.02429C33.1849 2.04016 33.1636 2.06284 33.15 2.08973L30.1813 7.83533L23.5411 8.75793C23.5106 8.76242 23.482 8.77493 23.4585 8.79404C23.435 8.81315 23.4175 8.83813 23.408 8.86617C23.3985 8.89422 23.3973 8.92424 23.4047 8.95287C23.412 8.98151 23.4275 9.00764 23.4495 9.02835L28.2522 13.4998L27.1178 19.8149C27.1127 19.844 27.1162 19.874 27.128 19.9014C27.1398 19.9287 27.1593 19.9524 27.1844 19.9698C27.2095 19.9871 27.2392 19.9974 27.2701 19.9996C27.301 20.0017 27.3319 19.9956 27.3593 19.9819L27.361 19.9835Z" fill="#9F8772"/>
<path d="M50.7609 19.9835L56.6998 16.9993L62.6387 19.9803C62.6662 19.994 62.6971 20.0001 62.728 19.998C62.7589 19.9959 62.7886 19.9855 62.8136 19.9682C62.8387 19.9508 62.8583 19.9271 62.87 19.8998C62.8818 19.8724 62.8854 19.8424 62.8803 19.8133L61.7475 13.4982L66.5502 9.02676C66.5722 9.00605 66.5877 8.97992 66.595 8.95128C66.6024 8.92265 66.6012 8.89263 66.5917 8.86458C66.5822 8.83654 66.5647 8.81156 66.5412 8.79245C66.5177 8.77334 66.4891 8.76083 66.4586 8.75634L59.8184 7.83374L56.8497 2.08973C56.8361 2.06284 56.8148 2.04016 56.7883 2.02429C56.7618 2.00842 56.7311 2 56.6998 2C56.6685 2 56.6378 2.00842 56.6113 2.02429C56.5848 2.04016 56.5635 2.06284 56.5499 2.08973L53.5812 7.83533L46.941 8.75793C46.9105 8.76242 46.8819 8.77493 46.8584 8.79404C46.8349 8.81315 46.8174 8.83813 46.8079 8.86617C46.7984 8.89422 46.7972 8.92424 46.8046 8.95287C46.8119 8.98151 46.8274 9.00764 46.8494 9.02835L51.6521 13.4998L50.5177 19.8149C50.5126 19.844 50.5161 19.874 50.5279 19.9014C50.5397 19.9287 50.5592 19.9524 50.5843 19.9698C50.6094 19.9871 50.6391 19.9974 50.67 19.9996C50.7009 20.0017 50.7318 19.9956 50.7592 19.9819L50.7609 19.9835Z" fill="#9F8772"/>
<path d="M74.1613 19.9835L80.1002 16.9993L86.0391 19.9803C86.0666 19.994 86.0975 20.0001 86.1284 19.998C86.1593 19.9959 86.1889 19.9855 86.214 19.9682C86.2391 19.9508 86.2587 19.9271 86.2704 19.8998C86.2822 19.8724 86.2857 19.8424 86.2807 19.8133L85.1479 13.4982L89.9506 9.02676C89.9726 9.00605 89.9881 8.97992 89.9954 8.95128C90.0028 8.92265 90.0016 8.89263 89.9921 8.86458C89.9826 8.83654 89.9651 8.81156 89.9416 8.79245C89.9181 8.77334 89.8895 8.76083 89.859 8.75634L83.2188 7.83374L80.2501 2.08973C80.2365 2.06284 80.2152 2.04016 80.1887 2.02429C80.1622 2.00842 80.1315 2 80.1002 2C80.0689 2 80.0382 2.00842 80.0117 2.02429C79.9852 2.04016 79.9639 2.06284 79.9503 2.08973L76.9816 7.83533L70.3414 8.75793C70.3109 8.76242 70.2823 8.77493 70.2588 8.79404C70.2353 8.81315 70.2178 8.83813 70.2083 8.86617C70.1988 8.89422 70.1976 8.92424 70.205 8.95287C70.2123 8.98151 70.2278 9.00764 70.2498 9.02835L75.0525 13.4998L73.9181 19.8149C73.913 19.844 73.9165 19.874 73.9283 19.9014C73.9401 19.9287 73.9596 19.9524 73.9847 19.9698C74.0098 19.9871 74.0394 19.9974 74.0703 19.9996C74.1012 20.0017 74.1322 19.9956 74.1596 19.9819L74.1613 19.9835Z" fill="#9F8772"/>
<path d="M105.455 9.26279L103.5 4.67907L101.545 9.27325L96.5536 9.70232L100.347 12.9884L99.2124 17.8337L103.5 15.2593L107.798 17.8337L106.653 12.9884L110.446 9.70232L105.455 9.26279ZM109.374 20L103.5 16.4837L97.6361 20L99.1704 13.3547L94 8.87558L100.82 8.27907L103.5 2L106.18 8.27907L113 8.87558L107.83 13.3442L109.374 20Z" fill="#9F8772"/>
</svg>
