<svg width="313" height="35" viewBox="0 0 313 35" fill="none" xmlns="http://www.w3.org/2000/svg">
<path d="M295.812 27.3L287.728 14.375L286.875 13L304.75 13L295.812 27.3ZM295.812 24.6875L302.275 14.375L289.35 14.375L295.812 24.6875Z" fill="#373737"/>
<path d="M104.812 27.3L96.7275 14.375L95.875 13L113.75 13L104.812 27.3ZM104.812 24.6875L111.275 14.375L98.35 14.375L104.812 24.6875Z" fill="#373737"/>
<path d="M10.8828 10.9766H4.32031V16.7891H10.3906V18.5586H4.32031V26H2.35156V9.19531H10.8828V10.9766ZM14.7969 10.9531C14.4531 10.9531 14.1602 10.8359 13.918 10.6016C13.6758 10.3672 13.5547 10.0703 13.5547 9.71094C13.5547 9.35156 13.6758 9.05469 13.918 8.82031C14.1602 8.57812 14.4531 8.45703 14.7969 8.45703C15.1484 8.45703 15.4453 8.57812 15.6875 8.82031C15.9375 9.05469 16.0625 9.35156 16.0625 9.71094C16.0625 10.0547 15.9375 10.3477 15.6875 10.5898C15.4453 10.832 15.1484 10.9531 14.7969 10.9531ZM15.7344 26H13.8125V14H15.7344V26ZM21.5469 26H19.625V8.23438H21.5469V26ZM31.0039 25.8828C30.5508 26.1328 29.9531 26.2578 29.2109 26.2578C27.1094 26.2578 26.0586 25.0859 26.0586 22.7422V15.6406H23.9961V14H26.0586V11.0703L27.9805 10.4492V14H31.0039V15.6406H27.9805V22.4023C27.9805 23.207 28.1172 23.7812 28.3906 24.125C28.6641 24.4688 29.1172 24.6406 29.75 24.6406C30.2344 24.6406 30.6523 24.5078 31.0039 24.2422V25.8828ZM43.2148 20.4805H34.7422C34.7734 21.8164 35.1328 22.8477 35.8203 23.5742C36.5078 24.3008 37.4531 24.6641 38.6562 24.6641C40.0078 24.6641 41.25 24.2188 42.3828 23.3281V25.1328C41.3281 25.8984 39.9336 26.2812 38.1992 26.2812C36.5039 26.2812 35.1719 25.7383 34.2031 24.6523C33.2344 23.5586 32.75 22.0234 32.75 20.0469C32.75 18.1797 33.2773 16.6602 34.332 15.4883C35.3945 14.3086 36.7109 13.7188 38.2812 13.7188C39.8516 13.7188 41.0664 14.2266 41.9258 15.2422C42.7852 16.2578 43.2148 17.668 43.2148 19.4727V20.4805ZM41.2461 18.8516C41.2383 17.7422 40.9688 16.8789 40.4375 16.2617C39.9141 15.6445 39.1836 15.3359 38.2461 15.3359C37.3398 15.3359 36.5703 15.6602 35.9375 16.3086C35.3047 16.957 34.9141 17.8047 34.7656 18.8516H41.2461ZM52.3906 15.9453C52.0547 15.6875 51.5703 15.5586 50.9375 15.5586C50.1172 15.5586 49.4297 15.9453 48.875 16.7188C48.3281 17.4922 48.0547 18.5469 48.0547 19.8828V26H46.1328V14H48.0547V16.4727H48.1016C48.375 15.6289 48.793 14.9727 49.3555 14.5039C49.918 14.0273 50.5469 13.7891 51.2422 13.7891C51.7422 13.7891 52.125 13.8438 52.3906 13.9531V15.9453ZM63.0312 24.2656H62.9844V26H61.0625V8.23438H62.9844V16.1094H63.0312C63.9766 14.5156 65.3594 13.7188 67.1797 13.7188C68.7188 13.7188 69.9219 14.2578 70.7891 15.3359C71.6641 16.4062 72.1016 17.8438 72.1016 19.6484C72.1016 21.6562 71.6133 23.2656 70.6367 24.4766C69.6602 25.6797 68.3242 26.2812 66.6289 26.2812C65.043 26.2812 63.8438 25.6094 63.0312 24.2656ZM62.9844 19.4258V21.1016C62.9844 22.0938 63.3047 22.9375 63.9453 23.6328C64.5938 24.3203 65.4141 24.6641 66.4062 24.6641C67.5703 24.6641 68.4805 24.2188 69.1367 23.3281C69.8008 22.4375 70.1328 21.1992 70.1328 19.6133C70.1328 18.2773 69.8242 17.2305 69.207 16.4727C68.5898 15.7148 67.7539 15.3359 66.6992 15.3359C65.582 15.3359 64.6836 15.7266 64.0039 16.5078C63.3242 17.2812 62.9844 18.2539 62.9844 19.4258ZM84.7227 14L79.2031 27.9219C78.2188 30.4062 76.8359 31.6484 75.0547 31.6484C74.5547 31.6484 74.1367 31.5977 73.8008 31.4961V29.7734C74.2148 29.9141 74.5938 29.9844 74.9375 29.9844C75.9062 29.9844 76.6328 29.4062 77.1172 28.25L78.0781 25.9766L73.3906 14H75.5234L78.7695 23.2344C78.8086 23.3516 78.8906 23.6562 79.0156 24.1484H79.0859C79.125 23.9609 79.2031 23.6641 79.3203 23.2578L82.7305 14H84.7227Z" fill="#373737"/>
<path d="M196.383 26H194.426V14.7266C194.426 13.8359 194.48 12.7461 194.59 11.457H194.543C194.355 12.2148 194.188 12.7578 194.039 13.0859L188.297 26H187.336L181.605 13.1797C181.441 12.8047 181.273 12.2305 181.102 11.457H181.055C181.117 12.1289 181.148 13.2266 181.148 14.75V26H179.25V9.19531H181.852L187.008 20.9141C187.406 21.8125 187.664 22.4844 187.781 22.9297H187.852C188.188 22.0078 188.457 21.3203 188.66 20.8672L193.922 9.19531H196.383V26ZM209.145 26H207.223V24.125H207.176C206.34 25.5625 205.109 26.2812 203.484 26.2812C202.289 26.2812 201.352 25.9648 200.672 25.332C200 24.6992 199.664 23.8594 199.664 22.8125C199.664 20.5703 200.984 19.2656 203.625 18.8984L207.223 18.3945C207.223 16.3555 206.398 15.3359 204.75 15.3359C203.305 15.3359 202 15.8281 200.836 16.8125V14.8438C202.016 14.0938 203.375 13.7188 204.914 13.7188C207.734 13.7188 209.145 15.2109 209.145 18.1953V26ZM207.223 19.9297L204.328 20.3281C203.438 20.4531 202.766 20.6758 202.312 20.9961C201.859 21.3086 201.633 21.8672 201.633 22.6719C201.633 23.2578 201.84 23.7383 202.254 24.1133C202.676 24.4805 203.234 24.6641 203.93 24.6641C204.883 24.6641 205.668 24.332 206.285 23.668C206.91 22.9961 207.223 22.1484 207.223 21.125V19.9297ZM218.332 25.8828C217.879 26.1328 217.281 26.2578 216.539 26.2578C214.438 26.2578 213.387 25.0859 213.387 22.7422V15.6406H211.324V14H213.387V11.0703L215.309 10.4492V14H218.332V15.6406H215.309V22.4023C215.309 23.207 215.445 23.7812 215.719 24.125C215.992 24.4688 216.445 24.6406 217.078 24.6406C217.562 24.6406 217.98 24.5078 218.332 24.2422V25.8828ZM229.078 25.4492C228.156 26.0039 227.062 26.2812 225.797 26.2812C224.086 26.2812 222.703 25.7266 221.648 24.6172C220.602 23.5 220.078 22.0547 220.078 20.2812C220.078 18.3047 220.645 16.7188 221.777 15.5234C222.91 14.3203 224.422 13.7188 226.312 13.7188C227.367 13.7188 228.297 13.9141 229.102 14.3047V16.2734C228.211 15.6484 227.258 15.3359 226.242 15.3359C225.016 15.3359 224.008 15.7773 223.219 16.6602C222.438 17.5352 222.047 18.6875 222.047 20.1172C222.047 21.5234 222.414 22.6328 223.148 23.4453C223.891 24.2578 224.883 24.6641 226.125 24.6641C227.172 24.6641 228.156 24.3164 229.078 23.6211V25.4492ZM241.945 26H240.023V19.0859C240.023 16.5859 239.094 15.3359 237.234 15.3359C236.297 15.3359 235.508 15.6992 234.867 16.4258C234.227 17.1445 233.906 18.0703 233.906 19.2031V26H231.984V8.23438H233.906V15.9922H233.953C234.875 14.4766 236.188 13.7188 237.891 13.7188C240.594 13.7188 241.945 15.3477 241.945 18.6055V26ZM254.133 24.2656H254.086V26H252.164V8.23438H254.086V16.1094H254.133C255.078 14.5156 256.461 13.7188 258.281 13.7188C259.82 13.7188 261.023 14.2578 261.891 15.3359C262.766 16.4062 263.203 17.8438 263.203 19.6484C263.203 21.6562 262.715 23.2656 261.738 24.4766C260.762 25.6797 259.426 26.2812 257.73 26.2812C256.145 26.2812 254.945 25.6094 254.133 24.2656ZM254.086 19.4258V21.1016C254.086 22.0938 254.406 22.9375 255.047 23.6328C255.695 24.3203 256.516 24.6641 257.508 24.6641C258.672 24.6641 259.582 24.2188 260.238 23.3281C260.902 22.4375 261.234 21.1992 261.234 19.6133C261.234 18.2773 260.926 17.2305 260.309 16.4727C259.691 15.7148 258.855 15.3359 257.801 15.3359C256.684 15.3359 255.785 15.7266 255.105 16.5078C254.426 17.2812 254.086 18.2539 254.086 19.4258ZM275.824 14L270.305 27.9219C269.32 30.4062 267.938 31.6484 266.156 31.6484C265.656 31.6484 265.238 31.5977 264.902 31.4961V29.7734C265.316 29.9141 265.695 29.9844 266.039 29.9844C267.008 29.9844 267.734 29.4062 268.219 28.25L269.18 25.9766L264.492 14H266.625L269.871 23.2344C269.91 23.3516 269.992 23.6562 270.117 24.1484H270.188C270.227 23.9609 270.305 23.6641 270.422 23.2578L273.832 14H275.824Z" fill="#373737"/>
</svg>
