<svg width="44" height="36" viewBox="0 0 44 36" fill="none" xmlns="http://www.w3.org/2000/svg">
<path d="M20.7345 6.20531L22 8.19394L23.2655 6.20531C25.0887 3.3402 28.3102 1.5 32 1.5C37.7716 1.5 42.5 6.22843 42.5 12C42.5 14.5487 41.3238 17.2378 39.3529 19.9255C37.3934 22.5975 34.748 25.1317 32.0501 27.3391C29.3597 29.5404 26.6617 31.3805 24.6322 32.672C23.6189 33.3168 22.7759 33.8226 22.1885 34.1659C22.1234 34.2039 22.0615 34.2399 22.0028 34.2739C21.9437 34.2394 21.8813 34.2028 21.8156 34.1642C21.228 33.8183 20.3847 33.3089 19.3712 32.6601C17.3413 31.3606 14.6426 29.5109 11.9514 27.3029C9.25282 25.0888 6.60657 22.5508 4.6464 19.8823C2.67395 17.1971 1.5 14.5212 1.5 12C1.5 6.22843 6.22843 1.5 12 1.5C15.6898 1.5 18.9113 3.3402 20.7345 6.20531Z" stroke="#9F8772" stroke-width="3"/>
</svg>
