<svg width="997" height="113" viewBox="0 0 997 113" fill="none" xmlns="http://www.w3.org/2000/svg">
<rect width="997" height="113" rx="6" fill="#665A48"/>
<path d="M421.352 73H417.719L414.75 65.1484H402.875L400.082 73H396.43L407.172 44.9922H410.57L421.352 73ZM413.676 62.1992L409.281 50.2656C409.138 49.875 408.995 49.25 408.852 48.3906H408.773C408.643 49.1849 408.493 49.8099 408.324 50.2656L403.969 62.1992H413.676ZM442.133 73H438.93V69.6016H438.852C437.367 72.1797 435.076 73.4688 431.977 73.4688C429.464 73.4688 427.452 72.5768 425.941 70.793C424.444 68.9961 423.695 66.5547 423.695 63.4688C423.695 60.1615 424.529 57.5117 426.195 55.5195C427.862 53.5273 430.082 52.5312 432.855 52.5312C435.603 52.5312 437.602 53.612 438.852 55.7734H438.93V43.3906H442.133V73ZM438.93 63.957V61.0078C438.93 59.3932 438.396 58.026 437.328 56.9062C436.26 55.7865 434.906 55.2266 433.266 55.2266C431.312 55.2266 429.776 55.9427 428.656 57.375C427.536 58.8073 426.977 60.7865 426.977 63.3125C426.977 65.6172 427.51 67.4401 428.578 68.7812C429.659 70.1094 431.104 70.7734 432.914 70.7734C434.698 70.7734 436.143 70.1289 437.25 68.8398C438.37 67.5508 438.93 65.9232 438.93 63.957ZM465.688 73H462.484V69.6016H462.406C460.922 72.1797 458.63 73.4688 455.531 73.4688C453.018 73.4688 451.007 72.5768 449.496 70.793C447.999 68.9961 447.25 66.5547 447.25 63.4688C447.25 60.1615 448.083 57.5117 449.75 55.5195C451.417 53.5273 453.637 52.5312 456.41 52.5312C459.158 52.5312 461.156 53.612 462.406 55.7734H462.484V43.3906H465.688V73ZM462.484 63.957V61.0078C462.484 59.3932 461.951 58.026 460.883 56.9062C459.815 55.7865 458.461 55.2266 456.82 55.2266C454.867 55.2266 453.331 55.9427 452.211 57.375C451.091 58.8073 450.531 60.7865 450.531 63.3125C450.531 65.6172 451.065 67.4401 452.133 68.7812C453.214 70.1094 454.659 70.7734 456.469 70.7734C458.253 70.7734 459.698 70.1289 460.805 68.8398C461.924 67.5508 462.484 65.9232 462.484 63.957ZM492.426 72.8047C491.671 73.2214 490.674 73.4297 489.438 73.4297C485.935 73.4297 484.184 71.4766 484.184 67.5703V55.7344H480.746V53H484.184V48.1172L487.387 47.082V53H492.426V55.7344H487.387V67.0039C487.387 68.3451 487.615 69.3021 488.07 69.875C488.526 70.4479 489.281 70.7344 490.336 70.7344C491.143 70.7344 491.84 70.513 492.426 70.0703V72.8047ZM505.062 73.4688C502.107 73.4688 499.743 72.5378 497.973 70.6758C496.215 68.8008 495.336 66.3203 495.336 63.2344C495.336 59.875 496.254 57.2513 498.09 55.3633C499.926 53.4753 502.406 52.5312 505.531 52.5312C508.513 52.5312 510.837 53.4492 512.504 55.2852C514.184 57.1211 515.023 59.6667 515.023 62.9219C515.023 66.112 514.118 68.6706 512.309 70.5977C510.512 72.5117 508.096 73.4688 505.062 73.4688ZM505.297 55.2266C503.24 55.2266 501.612 55.9297 500.414 57.3359C499.216 58.7292 498.617 60.6562 498.617 63.1172C498.617 65.487 499.223 67.3555 500.434 68.7227C501.645 70.0898 503.266 70.7734 505.297 70.7734C507.367 70.7734 508.956 70.1029 510.062 68.7617C511.182 67.4206 511.742 65.513 511.742 63.0391C511.742 60.5391 511.182 58.612 510.062 57.2578C508.956 55.9036 507.367 55.2266 505.297 55.2266ZM550.609 71.8281C548.539 72.9219 545.961 73.4688 542.875 73.4688C538.891 73.4688 535.701 72.1862 533.305 69.6211C530.909 67.056 529.711 63.6901 529.711 59.5234C529.711 55.0443 531.059 51.4245 533.754 48.6641C536.449 45.9036 539.867 44.5234 544.008 44.5234C546.664 44.5234 548.865 44.9076 550.609 45.6758V49.1719C548.604 48.0521 546.391 47.4922 543.969 47.4922C540.753 47.4922 538.142 48.5664 536.137 50.7148C534.145 52.8633 533.148 55.7344 533.148 59.3281C533.148 62.7396 534.079 65.4609 535.941 67.4922C537.816 69.5104 540.271 70.5195 543.305 70.5195C546.117 70.5195 548.552 69.8945 550.609 68.6445V71.8281ZM570.199 73H566.996V69.875H566.918C565.525 72.2708 563.474 73.4688 560.766 73.4688C558.773 73.4688 557.211 72.9414 556.078 71.8867C554.958 70.832 554.398 69.4323 554.398 67.6875C554.398 63.9505 556.599 61.776 561 61.1641L566.996 60.3242C566.996 56.9258 565.622 55.2266 562.875 55.2266C560.466 55.2266 558.292 56.0469 556.352 57.6875V54.4062C558.318 53.1562 560.583 52.5312 563.148 52.5312C567.849 52.5312 570.199 55.0182 570.199 59.9922V73ZM566.996 62.8828L562.172 63.5469C560.688 63.7552 559.568 64.1263 558.812 64.6602C558.057 65.181 557.68 66.112 557.68 67.4531C557.68 68.4297 558.025 69.2305 558.715 69.8555C559.418 70.4674 560.349 70.7734 561.508 70.7734C563.096 70.7734 564.405 70.2201 565.434 69.1133C566.475 67.9935 566.996 66.5807 566.996 64.875V62.8828ZM586.664 56.2422C586.104 55.8125 585.297 55.5977 584.242 55.5977C582.875 55.5977 581.729 56.2422 580.805 57.5312C579.893 58.8203 579.438 60.5781 579.438 62.8047V73H576.234V53H579.438V57.1211H579.516C579.971 55.7148 580.668 54.6211 581.605 53.8398C582.543 53.0456 583.591 52.6484 584.75 52.6484C585.583 52.6484 586.221 52.7396 586.664 52.9219V56.2422ZM599.418 72.8047C598.663 73.2214 597.667 73.4297 596.43 73.4297C592.927 73.4297 591.176 71.4766 591.176 67.5703V55.7344H587.738V53H591.176V48.1172L594.379 47.082V53H599.418V55.7344H594.379V67.0039C594.379 68.3451 594.607 69.3021 595.062 69.875C595.518 70.4479 596.273 70.7344 597.328 70.7344C598.135 70.7344 598.832 70.513 599.418 70.0703V72.8047Z" fill="white"/>
</svg>
